<svg width="53" height="52" viewBox="0 0 53 52" fill="none" xmlns="http://www.w3.org/2000/svg">
<path d="M44.917 9.01562H8.08366C7.78466 9.01562 7.54199 9.25829 7.54199 9.55729V35.5573C7.54199 35.8563 7.78466 36.099 8.08366 36.099H22.3024C22.2071 36.4532 22.2428 36.8291 22.4259 37.1639C22.7455 37.751 23.3717 38.0771 24.0628 37.8854V42.4419C24.0628 42.6575 24.1907 42.8525 24.3889 42.938C24.585 43.0236 24.8157 42.9846 24.9739 42.8373L26.5003 41.416L28.0267 42.8384C28.1297 42.9337 28.2618 42.9835 28.3962 42.9835C28.4687 42.9835 28.5435 42.9684 28.6117 42.938C28.81 42.8514 28.9378 42.6575 28.9378 42.4419V37.8843C29.2856 37.9742 29.6517 37.9395 29.9757 37.763C30.4577 37.4997 30.7578 37.0014 30.7578 36.4619C30.7578 36.3438 30.7351 36.2203 30.7004 36.099H44.917C45.216 36.099 45.4587 35.8563 45.4587 35.5573V9.55729C45.4587 9.25829 45.216 9.01562 44.917 9.01562ZM26.8697 40.2806C26.6628 40.0867 26.3389 40.0867 26.1309 40.2806L25.1462 41.1982V38.115C25.3563 38.6892 25.8785 39.0857 26.5003 39.0857C27.1211 39.0857 27.6432 38.6903 27.8545 38.114V41.1982L26.8697 40.2806ZM29.4567 36.8118C29.3354 36.879 29.2087 36.8703 29.0754 36.7847C28.8891 36.6666 28.6637 36.5919 28.4417 36.5724C28.3864 36.5648 28.3279 36.5594 28.2976 36.5594C27.6032 36.5594 27.016 37.0285 26.8708 37.6958C26.769 38.1443 26.2284 38.141 26.1287 37.699C25.9814 37.0274 25.3942 36.5583 24.7009 36.5583C24.6717 36.5583 24.6186 36.5637 24.5644 36.5713C24.5622 36.5713 24.5601 36.5713 24.5579 36.5724H24.5568C24.533 36.5745 24.5102 36.5832 24.4864 36.5865C24.4702 36.5897 24.4474 36.593 24.4377 36.5962C24.4366 36.5962 24.4366 36.5973 24.4355 36.5973C24.2546 36.6287 24.0769 36.6872 23.9339 36.7771C23.8299 36.84 23.7508 36.8627 23.7151 36.8627C23.584 36.8627 23.4475 36.7739 23.376 36.6428C23.3077 36.5171 23.3121 36.3904 23.3868 36.2745C23.5266 36.0654 23.6002 35.8357 23.6067 35.592C23.6143 35.5475 23.6187 35.5064 23.6187 35.476C23.6187 34.799 23.1539 34.2129 22.4822 34.0493C22.2168 33.9886 22.1778 33.7904 22.1778 33.6777C22.1778 33.6084 22.1995 33.3755 22.4942 33.3148C22.7812 33.2422 23.025 33.0819 23.2243 32.863C23.2395 32.85 23.2547 32.837 23.2687 32.8219C23.2796 32.8089 23.2947 32.8013 23.3056 32.7872C23.3283 32.7569 23.3381 32.72 23.3587 32.6875C23.363 32.6778 23.3695 32.6702 23.3727 32.6605C23.5233 32.4178 23.6187 32.148 23.6187 31.8783C23.6187 31.5966 23.5385 31.315 23.4009 31.1015C23.3327 30.9867 23.3272 30.9206 23.3272 30.9033C23.3272 30.7646 23.415 30.6238 23.545 30.5512C23.6717 30.483 23.7963 30.4916 23.9003 30.5534C24.1257 30.7137 24.3954 30.795 24.702 30.795C25.3942 30.795 25.9814 30.3313 26.1298 29.664C26.1916 29.3845 26.4093 29.3541 26.5003 29.3541C26.5913 29.3541 26.8091 29.3845 26.8719 29.6705C26.9781 30.1255 27.3009 30.5046 27.7386 30.6834C28.1784 30.8643 28.6767 30.821 29.0667 30.5761C29.317 30.4223 29.5239 30.5306 29.6279 30.718C29.6951 30.8394 29.6886 30.964 29.6095 31.0864C29.4632 31.3139 29.3831 31.5955 29.3831 31.8772C29.3831 32.1426 29.4784 32.408 29.6279 32.655C29.6344 32.6713 29.6442 32.6843 29.6517 32.6995C29.6723 32.7309 29.681 32.7666 29.7048 32.798C29.7146 32.811 29.7297 32.8175 29.7395 32.8295C29.7471 32.8381 29.7557 32.8446 29.7644 32.8522C29.9605 33.0743 30.2107 33.239 30.5076 33.3126C30.5162 33.3148 30.5238 33.3159 30.5303 33.318C30.8022 33.3733 30.8239 33.6062 30.8239 33.6755C30.8239 33.7882 30.7849 33.9865 30.5119 34.0482C29.8478 34.2107 29.3831 34.7968 29.3831 35.4739C29.3831 35.475 29.3831 35.4771 29.3831 35.4782C29.3831 35.4847 29.3863 35.4977 29.3863 35.5053C29.3874 35.5313 29.3896 35.5573 29.395 35.5898C29.395 35.6028 29.4004 35.6136 29.4015 35.6266C29.4026 35.6331 29.4026 35.6375 29.4047 35.644C29.4199 35.8671 29.486 36.0795 29.6106 36.2658C29.6528 36.3319 29.6767 36.4153 29.6767 36.4608C29.6745 36.6005 29.5878 36.7414 29.4567 36.8118ZM30.4794 31.9173C30.4783 31.9043 30.4653 31.8913 30.4653 31.8794C30.4653 31.8057 30.487 31.7266 30.5206 31.6725C30.812 31.2175 30.8326 30.6671 30.5769 30.2002C30.1847 29.4852 29.291 29.1775 28.4969 29.6564C28.3507 29.7485 28.2055 29.7062 28.1502 29.6835C28.0961 29.6607 27.9661 29.5914 27.9292 29.4354C27.7787 28.7399 27.2045 28.2719 26.5014 28.2719C25.7983 28.2719 25.2231 28.7399 25.0736 29.431C25.0302 29.6239 24.8515 29.7116 24.7031 29.7116C24.5861 29.7116 24.5438 29.6813 24.5037 29.6542C24.0422 29.365 23.4887 29.3455 23.0217 29.6033C22.5429 29.8687 22.2439 30.366 22.2439 30.9033C22.2439 31.1514 22.3208 31.406 22.4812 31.6725C22.5147 31.7255 22.5364 31.8046 22.5364 31.8783C22.5364 31.8913 22.5245 31.9032 22.5223 31.9162H13.9954C13.7701 30.6585 12.7756 29.665 11.5189 29.4397V15.6738C12.7756 15.4485 13.7701 14.455 13.9954 13.1973H39.0074C39.2327 14.455 40.2272 15.4485 41.4839 15.6738V29.4408C40.2272 29.6661 39.2327 30.6595 39.0074 31.9173H30.4794ZM44.3753 35.0156H30.9788C31.5346 34.7946 31.9062 34.2941 31.9062 33.6777C31.9062 33.4264 31.8303 33.2043 31.7231 33.0006H39.5003C39.7993 33.0006 40.042 32.758 40.042 32.459C40.042 31.3659 40.9314 30.4765 42.0245 30.4765C42.3235 30.4765 42.5662 30.2338 42.5662 29.9348V15.1798C42.5662 14.8808 42.3235 14.6381 42.0245 14.6381C40.9314 14.6381 40.042 13.7487 40.042 12.6556C40.042 12.3566 39.7993 12.114 39.5003 12.114H13.5003C13.2013 12.114 12.9587 12.3566 12.9587 12.6556C12.9587 13.7487 12.0692 14.6381 10.9762 14.6381C10.6772 14.6381 10.4345 14.8808 10.4345 15.1798V29.9348C10.4345 30.2338 10.6772 30.4765 10.9762 30.4765C12.0692 30.4765 12.9587 31.3659 12.9587 32.459C12.9587 32.758 13.2013 33.0006 13.5003 33.0006H21.2765C21.1692 33.2043 21.0934 33.4264 21.0934 33.6777C21.0934 34.2952 21.4661 34.7968 22.0186 35.0156H8.62533V10.099H44.3753V35.0156Z" fill="#CAA322"/>
<path d="M16.1413 21.2259H20.61C20.909 21.2259 21.1517 20.9832 21.1517 20.6842V16.2155C21.1517 15.9165 20.909 15.6738 20.61 15.6738H16.1413C15.8423 15.6738 15.5996 15.9165 15.5996 16.2155V20.6842C15.5996 20.9843 15.8412 21.2259 16.1413 21.2259ZM16.6829 16.7572H20.0684V20.1426H16.6829V16.7572Z" fill="#CAA322"/>
<path d="M36.8597 15.6738H24.5368C24.2378 15.6738 23.9951 15.9165 23.9951 16.2155C23.9951 16.5145 24.2378 16.7572 24.5368 16.7572H36.8597C37.1587 16.7572 37.4014 16.5145 37.4014 16.2155C37.4014 15.9165 37.1587 15.6738 36.8597 15.6738Z" fill="#CAA322"/>
<path d="M36.8597 20.1426H24.5368C24.2378 20.1426 23.9951 20.3852 23.9951 20.6842C23.9951 20.9832 24.2378 21.2259 24.5368 21.2259H36.8597C37.1587 21.2259 37.4014 20.9832 37.4014 20.6842C37.4014 20.3852 37.1587 20.1426 36.8597 20.1426Z" fill="#CAA322"/>
<path d="M36.86 24.6631H16.1413C15.8423 24.6631 15.5996 24.9058 15.5996 25.2048C15.5996 25.5038 15.8423 25.7464 16.1413 25.7464H36.86C37.159 25.7464 37.4017 25.5038 37.4017 25.2048C37.4017 24.9058 37.159 24.6631 36.86 24.6631Z" fill="#CAA322"/>
<path d="M26.5 31.2402C25.1567 31.2402 24.0625 32.3333 24.0625 33.6777C24.0625 33.7102 24.0668 33.7503 24.0755 33.7926C24.1286 35.0991 25.1838 36.1152 26.5 36.1152C27.8163 36.1152 28.8714 35.0991 28.9245 33.7926C28.9332 33.7503 28.9375 33.7102 28.9375 33.6777C28.9375 32.3344 27.8433 31.2402 26.5 31.2402ZM26.5 35.0319C25.7623 35.0319 25.1718 34.4556 25.1567 33.7211C25.1556 33.6907 25.1523 33.6604 25.1469 33.6312C25.1718 32.9064 25.7688 32.3247 26.5 32.3247C26.6831 32.3247 26.8564 32.3615 27.0157 32.4265C27.1684 32.4893 27.306 32.5836 27.4241 32.6952C27.4284 32.6995 27.4349 32.7006 27.4403 32.706C27.6841 32.9422 27.8401 33.2682 27.8531 33.6322C27.8477 33.6615 27.8444 33.6918 27.8433 33.7222C27.8282 34.4567 27.2378 35.0319 26.5 35.0319Z" fill="#CAA322"/>
</svg>
