<svg width="52" height="52" viewBox="0 0 52 52" fill="none" xmlns="http://www.w3.org/2000/svg">
<path fill-rule="evenodd" clip-rule="evenodd" d="M24.5995 8.82516C24.2378 9.00886 24.0939 9.22491 23.9086 9.86289L23.74 10.4431L23.2241 10.6549L22.7082 10.8668L22.2124 10.5948C21.5608 10.2372 21.3438 10.1935 20.9766 10.3457C20.6508 10.4807 19.2549 11.809 19.0684 12.1615C18.8703 12.5361 18.9254 12.9893 19.2368 13.5461L19.5196 14.0519L19.3105 14.5612L19.1013 15.0705L18.4471 15.3024L17.7928 15.5345L13.2284 15.5817C8.81768 15.6273 8.65175 15.6345 8.30357 15.7964C7.7797 16.04 7.46267 16.3382 7.22877 16.8077L7.02232 17.2219V27.1384C7.02232 35.7719 7.03786 37.0922 7.14244 37.3424C7.20851 37.5006 7.26256 37.6435 7.26256 37.6602C7.26256 37.6768 7.04803 37.6904 6.78585 37.6904C6.22242 37.6904 5.9142 37.811 5.85294 38.0553C5.82844 38.1527 5.82075 38.9123 5.83589 39.7432C5.86111 41.1333 5.87817 41.284 6.04994 41.6316C6.34751 42.2335 6.81324 42.7012 7.40526 42.9926L7.93986 43.2559H26.0008H44.0618L44.5964 42.9926C45.1884 42.7012 45.6542 42.2335 45.9517 41.6316C46.1235 41.284 46.1406 41.1333 46.1658 39.7432C46.1809 38.9123 46.1732 38.1527 46.1487 38.0553C46.0875 37.811 45.7793 37.6904 45.2158 37.6904C44.9537 37.6904 44.7391 37.6768 44.7391 37.6602C44.7391 37.6435 44.7932 37.5006 44.8592 37.3424C45.0398 36.9103 45.0409 17.4127 44.8604 16.9806C44.6567 16.4932 44.2747 16.089 43.7948 15.8534L43.3378 15.6289L38.7733 15.5817L34.2088 15.5345L33.5546 15.3024L32.9004 15.0705L32.6912 14.5612L32.482 14.0519L32.7649 13.5461C33.0763 12.9893 33.1314 12.5361 32.9333 12.1615C32.7468 11.809 31.3509 10.4807 31.0251 10.3457C30.6587 10.1938 30.4407 10.2373 29.7961 10.591L29.3072 10.8591L28.7828 10.6511L28.2582 10.443L28.1225 9.95298C27.8156 8.84526 27.5652 8.70192 25.9392 8.70264C25.1135 8.70304 24.7799 8.73355 24.5995 8.82516ZM24.8428 10.2036C24.5629 11.2078 24.5681 11.2006 23.9563 11.4284C23.6493 11.5427 23.283 11.6968 23.1421 11.7708C22.7666 11.9678 22.5943 11.9404 21.9779 11.585C21.6723 11.4088 21.3977 11.2647 21.3676 11.2647C21.3376 11.2647 20.9924 11.5867 20.6006 11.9803L19.8883 12.6959L20.2279 13.2816C20.6286 13.9726 20.6272 14.0233 20.1751 15.1082C19.8262 15.9455 19.8737 15.9068 18.8539 16.1874L18.3934 16.3141V17.3497V18.3854L18.6937 18.4643C18.8589 18.5077 19.1641 18.5852 19.372 18.6365C19.5799 18.6877 19.7825 18.7708 19.8223 18.8209C19.9478 18.9791 20.4904 20.3427 20.5277 20.5938C20.5543 20.7723 20.4802 20.9751 20.2392 21.3834C20.0608 21.6855 19.9149 21.9566 19.9149 21.9857C19.9149 22.0147 20.2359 22.358 20.6283 22.7487L21.3417 23.4588L21.9296 23.1185C22.2529 22.9315 22.5895 22.778 22.6776 22.7776C22.7657 22.7771 23.2161 22.9355 23.6786 23.1295L24.5194 23.4823L24.6566 23.8798C24.732 24.0985 24.8325 24.4305 24.8798 24.6177L24.966 24.958H26.0008H27.0357L27.1219 24.6177C27.1692 24.4305 27.2697 24.1003 27.3451 23.8839L27.4823 23.4905L28.3231 23.1331C28.7856 22.9366 29.236 22.7764 29.3241 22.7771C29.4122 22.7778 29.7487 22.9315 30.0721 23.1185L30.6599 23.4588L31.3734 22.7487C31.7657 22.358 32.0868 22.0147 32.0868 21.9857C32.0868 21.9566 31.9409 21.6855 31.7625 21.3834C31.5215 20.9751 31.4474 20.7723 31.4739 20.5938C31.5113 20.3427 32.0539 18.9791 32.1794 18.8209C32.2192 18.7708 32.4218 18.6877 32.6297 18.6365C32.8376 18.5852 33.1428 18.5077 33.308 18.4643L33.6083 18.3854V17.3497V16.3141L33.1478 16.1874C32.128 15.9068 32.1755 15.9455 31.8266 15.1082C31.3758 14.0265 31.3736 13.969 31.7601 13.3078C31.9398 13.0003 32.0868 12.7202 32.0868 12.6854C32.0868 12.6028 30.7274 11.2647 30.6435 11.2647C30.6082 11.2647 30.3294 11.4088 30.0238 11.585C29.4074 11.9404 29.2351 11.9678 28.8596 11.7708C28.7187 11.6968 28.3523 11.5427 28.0454 11.4284C27.4336 11.2006 27.4388 11.2078 27.1589 10.2036L27.0305 9.74317H26.0008H24.9712L24.8428 10.2036ZM25.2104 12.7913C24.2478 12.9622 23.2285 13.5378 22.5599 14.2881C21.4716 15.5091 21.1213 17.2598 21.6552 18.8088C22.3138 20.7196 23.996 21.9265 26.0008 21.9265C28.007 21.9265 29.6858 20.7212 30.3486 18.8052C30.9244 17.1407 30.5079 15.3658 29.2458 14.107C28.3799 13.2432 27.4523 12.8235 26.2496 12.7515C25.9146 12.7314 25.4469 12.7493 25.2104 12.7913ZM24.9187 13.8867C22.6676 14.6898 21.7187 17.1934 22.9009 19.2106C23.1553 19.6448 23.8684 20.3237 24.3026 20.5452C25.7591 21.2883 27.5034 20.9909 28.6214 19.8088C29.2789 19.1135 29.6044 18.2978 29.6044 17.3445C29.6044 15.9437 28.8314 14.7291 27.5296 14.0841C26.982 13.8128 26.8742 13.7884 26.1282 13.7669C25.5092 13.749 25.2262 13.777 24.9187 13.8867ZM24.4838 15.4813C24.376 15.6184 24.334 15.7538 24.3659 15.8617C24.4653 16.198 24.6052 16.2295 26.0008 16.2295C27.3965 16.2295 27.5363 16.198 27.6358 15.8617C27.6677 15.7538 27.6257 15.6184 27.5179 15.4813L27.3506 15.2686H26.0008H24.6511L24.4838 15.4813ZM8.56311 16.7896C8.41953 16.8772 8.23054 17.0662 8.14302 17.2097C7.98655 17.4664 7.98382 17.6326 7.98382 27.1602C7.98382 36.6878 7.98655 36.8539 8.14302 37.1106C8.23054 37.2542 8.41953 37.4433 8.56311 37.531C8.82184 37.6891 8.97287 37.6903 26.0945 37.6704L43.3649 37.6504L43.5791 37.4502C44.0452 37.0147 44.0184 37.6421 44.0183 27.1842C44.0182 16.4338 44.0593 17.2081 43.466 16.8117L43.1939 16.6299H38.9216H34.6493V17.3506V18.0713H38.4471H42.2451L42.411 18.2823C42.5766 18.4928 42.577 18.5134 42.577 27.1602C42.577 35.8069 42.5766 35.8275 42.411 36.038L42.2451 36.249L26.015 36.2478C17.0885 36.2471 9.74538 36.2201 9.69693 36.1878C9.42971 36.0094 9.42467 35.8414 9.42467 27.1362C9.42467 18.5136 9.42507 18.4928 9.59067 18.2823L9.75659 18.0713H13.5545H17.3524V17.3506V16.6299L13.0882 16.6302C8.97455 16.6305 8.81487 16.6361 8.56311 16.7896ZM24.5428 16.9702C24.3244 17.1419 24.3021 17.3873 24.4838 17.6183L24.6511 17.8311H26.0008H27.3506L27.5179 17.6183C27.6257 17.4812 27.6677 17.3459 27.6358 17.2379C27.5363 16.9016 27.3965 16.8701 26.0008 16.8701C25.0576 16.8701 24.633 16.8993 24.5428 16.9702ZM24.6583 18.4718C24.4256 18.5689 24.2901 18.9083 24.4011 19.1158C24.5478 19.3899 24.7669 19.4326 26.0267 19.4326C27.1018 19.4326 27.2879 19.4136 27.4434 19.2877C27.6571 19.1146 27.6801 18.7553 27.4897 18.5647C27.3788 18.4537 27.1485 18.4287 26.0983 18.414C25.4061 18.4042 24.7581 18.4302 24.6583 18.4718ZM10.4657 27.1602V35.2881H26.0008H41.536V27.1602V19.0322H37.9768H34.4175L34.041 19.2324C33.8339 19.3425 33.6248 19.4329 33.5763 19.4331C33.5278 19.4333 33.3583 19.4695 33.1996 19.5137C32.9446 19.5845 32.8858 19.6535 32.6923 20.1086L32.4736 20.6235L32.7606 21.1368C33.1557 21.8433 33.1554 22.2422 32.7594 22.7609L32.4712 23.1386L33.8004 24.4695L35.1297 25.8005V26.5004V27.2002H36.0559C36.5662 27.2002 37.0547 27.239 37.1437 27.2867C37.5031 27.479 37.5321 27.7376 37.5318 30.7411C37.5315 33.3982 37.5222 33.5816 37.3758 33.8218C37.2712 33.9933 37.1202 34.1049 36.9156 34.1616C36.7388 34.2108 35.7557 34.2464 34.5692 34.2465C32.7846 34.2468 32.4921 34.2292 32.2481 34.1068C31.763 33.8636 31.7637 33.869 31.7862 30.5765L31.8065 27.5866L32.0312 27.3934C32.2416 27.2125 32.3168 27.2002 33.2124 27.2002H34.1688V26.6987V26.1972L32.9788 25.0091L31.7886 23.8211L31.4111 24.1093C30.8914 24.506 30.469 24.5081 29.8206 24.117C29.5651 23.963 29.3309 23.8368 29.3001 23.8367C29.2692 23.8366 29.0187 23.9321 28.7434 24.049C28.2814 24.2451 28.2361 24.2868 28.1583 24.5897C27.988 25.2518 27.9144 25.4165 27.6947 25.6271C27.458 25.8538 27.0704 25.999 26.7021 25.999H26.4813V26.5996V27.2002H27.4075C28.9609 27.2002 28.884 27.0177 28.8825 30.6996C28.8812 33.8497 28.8786 33.8678 28.4021 34.1068C28.1573 34.2295 27.8613 34.2468 26.0008 34.2468C24.1404 34.2468 23.8443 34.2295 23.5996 34.1068C23.1231 33.8678 23.1205 33.8497 23.1192 30.6996C23.1179 27.648 23.1368 27.4845 23.514 27.2827C23.5987 27.2373 24.0848 27.2002 24.5942 27.2002H25.5204V26.5996V25.999H25.2996C24.9313 25.999 24.5437 25.8538 24.307 25.6271C24.0873 25.4165 24.0137 25.2518 23.8434 24.5897C23.7651 24.2852 23.7216 24.2456 23.2405 24.0411L22.722 23.8207L22.2063 24.1091C21.4991 24.5046 21.1085 24.5046 20.5906 24.1093L20.213 23.8211L19.0229 25.0091L17.8329 26.1972V26.6987V27.2002H18.7591C20.3125 27.2002 20.2355 27.0177 20.234 30.6996C20.2327 33.8497 20.2302 33.8678 19.7536 34.1068C19.5096 34.2292 19.2171 34.2468 17.4325 34.2465C16.246 34.2464 15.2629 34.2108 15.086 34.1616C14.8814 34.1049 14.7305 33.9933 14.6259 33.8218C14.4794 33.5816 14.4702 33.3982 14.4699 30.7411C14.4696 27.7376 14.4986 27.479 14.858 27.2867C14.947 27.239 15.4355 27.2002 15.9458 27.2002H16.8719V26.5004V25.8005L18.2012 24.4695L19.5305 23.1386L19.2422 22.7609C18.8463 22.2422 18.8459 21.8433 19.241 21.1368L19.5281 20.6235L19.3094 20.1086C19.1159 19.6535 19.0571 19.5845 18.8021 19.5137C18.6433 19.4695 18.4739 19.4333 18.4254 19.4331C18.3768 19.4329 18.1678 19.3425 17.9607 19.2324L17.5841 19.0322H14.0249H10.4657V27.1602ZM15.5106 30.6836V33.2061H17.3524H19.1942V30.6836V28.1611H17.3524H15.5106V30.6836ZM24.159 30.6836V33.2061H26.0008H27.8426V30.6836V28.1611H26.0008H24.159V30.6836ZM32.8075 30.6836V33.2061H34.6493H36.4911V30.6836V28.1611H34.6493H32.8075V30.6836ZM16.356 28.8196C16.1882 29.0591 16.199 29.25 16.3915 29.4424C16.5302 29.5812 16.6584 29.6025 17.3524 29.6025C18.0464 29.6025 18.1746 29.5812 18.3133 29.4424C18.5058 29.25 18.5166 29.0591 18.3488 28.8196C18.233 28.6542 18.1625 28.6416 17.3524 28.6416C16.5423 28.6416 16.4718 28.6542 16.356 28.8196ZM25.0044 28.8196C24.8367 29.0591 24.8475 29.25 25.0399 29.4424C25.1787 29.5812 25.3068 29.6025 26.0008 29.6025C26.6949 29.6025 26.823 29.5812 26.9618 29.4424C27.1542 29.25 27.165 29.0591 26.9973 28.8196C26.8815 28.6542 26.8109 28.6416 26.0008 28.6416C25.1908 28.6416 25.1202 28.6542 25.0044 28.8196ZM33.6607 28.7881C33.4825 28.985 33.4936 29.2476 33.6883 29.4424C33.8271 29.5812 33.9552 29.6025 34.6493 29.6025C35.3433 29.6025 35.4714 29.5812 35.6102 29.4424C35.8026 29.25 35.8135 29.0591 35.6457 28.8196C35.53 28.6543 35.4591 28.6416 34.6571 28.6416C33.9219 28.6416 33.7735 28.6634 33.6607 28.7881ZM16.553 30.2621C16.4436 30.3196 16.3197 30.4645 16.2777 30.5841C16.2141 30.7647 16.2332 30.8353 16.3903 31.0027C16.5676 31.1914 16.6294 31.2041 17.3663 31.2041C18.0464 31.2041 18.1749 31.1824 18.3133 31.044C18.5208 30.8365 18.5173 30.5479 18.305 30.3557C18.0907 30.1617 16.8681 30.0963 16.553 30.2621ZM25.2801 30.2199C24.8645 30.3727 24.7648 30.7479 25.065 31.03C25.2286 31.1835 25.3403 31.2041 26.0121 31.2041C26.7221 31.2041 26.7865 31.1905 26.9629 31.0027C27.1201 30.8353 27.1392 30.7647 27.0756 30.5841C27.0335 30.4645 26.9096 30.3214 26.8003 30.2661C26.6039 30.1667 25.5148 30.1336 25.2801 30.2199ZM33.9286 30.2161C33.5219 30.3785 33.4097 30.7653 33.6883 31.044C33.827 31.1826 33.9552 31.2041 34.6434 31.2041C35.4069 31.2041 35.445 31.1957 35.6044 30.9931C35.8097 30.7322 35.8118 30.6324 35.6173 30.3922C35.4798 30.2223 35.3926 30.2014 34.7565 30.1857C34.3672 30.176 33.9946 30.1898 33.9286 30.2161ZM16.3903 31.9661C16.2332 32.1334 16.2141 32.204 16.2777 32.3847C16.3966 32.7229 16.6609 32.8143 17.4442 32.7885C17.991 32.7704 18.172 32.7336 18.305 32.6131C18.5173 32.4208 18.5208 32.1323 18.3133 31.9248C18.1749 31.7864 18.0464 31.7647 17.3663 31.7647C16.6294 31.7647 16.5676 31.7774 16.3903 31.9661ZM25.055 31.9279C24.8335 32.1342 24.8307 32.4162 25.0482 32.6131C25.1812 32.7336 25.3622 32.7704 25.9091 32.7885C26.6923 32.8143 26.9567 32.7229 27.0756 32.3847C27.1392 32.204 27.1201 32.1334 26.9629 31.9661C26.7862 31.7779 26.7228 31.7647 26.002 31.7647C25.336 31.7647 25.2062 31.787 25.055 31.9279ZM33.6883 31.9248C33.4809 32.1323 33.4844 32.4209 33.6967 32.6131C33.8388 32.7417 33.991 32.7656 34.6647 32.7656C35.4083 32.7656 35.4749 32.7524 35.6173 32.5766C35.8118 32.3363 35.8097 32.2366 35.6044 31.9757C35.445 31.7731 35.4069 31.7647 34.6434 31.7647C33.9552 31.7647 33.827 31.7862 33.6883 31.9248ZM6.79458 39.8726C6.82069 40.9541 6.8339 41.0336 7.04675 41.3958C7.17031 41.606 7.41991 41.8763 7.60145 41.9964L7.93153 42.2148H26.0018H44.0722L44.4107 41.9802C44.5969 41.8512 44.846 41.581 44.9644 41.3796C45.1659 41.0369 45.1813 40.9413 45.2071 39.8726L45.2346 38.7315H38.4295H31.6244L31.5937 39.272C31.5555 39.9468 31.3447 40.3733 30.8916 40.6934L30.5515 40.9336H26.0008H21.4502L21.1101 40.6934C20.657 40.3733 20.4462 39.9468 20.4079 39.272L20.3773 38.7315H13.5722H6.76704L6.79458 39.8726ZM21.3741 39.1854C21.4047 39.5536 21.4528 39.6748 21.6287 39.826L21.8457 40.0127H26.0008H30.1559L30.3729 39.826C30.5489 39.6748 30.597 39.5536 30.6276 39.1854L30.6652 38.7315H26.0008H21.3364L21.3741 39.1854Z" fill="#5D70FD"/>
</svg>
