<svg width="52" height="52" viewBox="0 0 52 52" fill="none" xmlns="http://www.w3.org/2000/svg">
<path fill-rule="evenodd" clip-rule="evenodd" d="M25.7854 8.11166C25.6882 8.15073 25.5739 8.27385 25.5315 8.38518C25.42 8.67854 25.4322 11.4899 25.546 11.7398C25.7114 12.1026 26.2915 12.1026 26.4568 11.7398C26.5535 11.5275 26.5881 8.77307 26.4982 8.43768C26.4603 8.2962 26.0979 8.0119 25.9858 8.03557C25.9729 8.03831 25.8828 8.07252 25.7854 8.11166ZM17.3026 11.6892C16.9992 12.0244 17.1053 12.2051 18.3265 13.4333C19.3092 14.4217 19.515 14.5931 19.7178 14.5931C20.0189 14.5931 20.1971 14.4581 20.2645 14.1788C20.3133 13.9766 20.225 13.8666 19.1197 12.753C18.0817 11.7071 17.8894 11.5463 17.677 11.5463C17.5388 11.5463 17.3755 11.6085 17.3026 11.6892ZM32.8927 12.7434C32.1741 13.4674 31.7046 14.0008 31.7046 14.0931C31.7046 14.3846 31.926 14.5931 32.2355 14.5931C32.5022 14.5931 32.6069 14.5089 33.6764 13.4333C34.6478 12.4564 34.8296 12.2366 34.8296 12.0392C34.8296 11.7487 34.6171 11.5463 34.3123 11.5463C34.1175 11.5463 33.8925 11.736 32.8927 12.7434ZM25.1585 13.4328C23.5205 13.6676 21.9382 14.7551 21.2053 16.1496C20.8331 16.8581 20.6889 17.4553 20.6889 18.2897C20.6889 19.5198 21.0629 20.4819 21.9394 21.5072C22.4033 22.0498 22.8528 22.8294 23.1784 23.656L23.3478 24.0862L23.1903 24.3953C22.9501 24.8664 22.978 25.4139 23.2653 25.8669C23.3933 26.0687 23.5339 26.2338 23.5778 26.2338C23.6217 26.2338 23.6577 26.3931 23.6577 26.5878C23.6577 27.2471 24.0559 27.8602 24.7124 28.2116C24.9839 28.357 25.1528 28.3789 26.0014 28.3789C26.8501 28.3789 27.0189 28.357 27.2905 28.2116C27.947 27.8602 28.3452 27.2471 28.3452 26.5878C28.3452 26.3931 28.3811 26.2338 28.425 26.2338C28.4689 26.2338 28.6096 26.0687 28.7375 25.8669C29.0249 25.4139 29.0528 24.8664 28.8126 24.3953L28.655 24.0862L28.8245 23.656C29.15 22.8294 29.5996 22.0498 30.0635 21.5072C30.94 20.4819 31.3139 19.5198 31.3139 18.2897C31.3139 17.4553 31.1698 16.8581 30.7975 16.1496C30.0438 14.7153 28.4892 13.669 26.7528 13.4275C26.0681 13.3323 25.8555 13.333 25.1585 13.4328ZM24.8296 14.5606C24.0462 14.7672 23.42 15.1303 22.8311 15.7195C22.0425 16.5086 21.7084 17.2776 21.7084 18.3041C21.7084 19.2776 21.9721 19.901 22.8424 20.9853C23.4109 21.6935 23.7655 22.3072 24.1145 23.1869L24.285 23.6166H26.0014H27.7179L27.8884 23.1869C28.2356 22.3117 28.5903 21.6958 29.1339 21.0245C29.8952 20.0844 30.2221 19.3898 30.2764 18.5973C30.356 17.4356 30.03 16.5899 29.1672 15.7195C28.5721 15.1192 27.9522 14.7639 27.1374 14.5558C26.5569 14.4076 25.4003 14.4099 24.8296 14.5606ZM13.8921 19.9838C13.6968 20.179 13.6902 20.5432 13.8787 20.7139C14.0024 20.8258 14.2464 20.843 15.6951 20.842C16.6155 20.8413 17.4073 20.8149 17.4546 20.7834C17.5584 20.7141 17.7202 20.4182 17.7202 20.2978C17.7202 20.2501 17.6339 20.1248 17.5284 20.0193C17.337 19.8278 17.334 19.8275 15.6925 19.8275C14.1525 19.8275 14.0384 19.8374 13.8921 19.9838ZM34.4745 20.0193C34.369 20.1248 34.2827 20.2501 34.2827 20.2978C34.2827 20.4182 34.4445 20.7141 34.5483 20.7834C34.5956 20.8149 35.3935 20.8413 36.3214 20.842C37.8575 20.8431 38.02 20.8303 38.1378 20.7003C38.3132 20.5065 38.3007 20.1736 38.1108 19.9838C37.9645 19.8374 37.8504 19.8275 36.3104 19.8275C34.6689 19.8275 34.6659 19.8278 34.4745 20.0193ZM24.171 24.794C23.9949 24.9703 24.0194 25.2672 24.222 25.409C24.3656 25.5096 24.6761 25.5306 26.0189 25.5306C27.5379 25.5306 27.6521 25.5206 27.7983 25.3744C27.986 25.1867 27.999 24.9613 27.8318 24.794C27.6484 24.6106 24.3545 24.6106 24.171 24.794ZM24.6733 26.6296C24.6733 26.7734 24.8412 27.0487 25.0145 27.1891C25.1487 27.2978 25.3406 27.3241 26.0014 27.3241C26.6623 27.3241 26.8542 27.2978 26.9884 27.1891C27.1617 27.0487 27.3296 26.7734 27.3296 26.6296C27.3296 26.5739 26.8894 26.5463 26.0014 26.5463C25.1135 26.5463 24.6733 26.5739 24.6733 26.6296ZM15.2983 28.6464C14.4591 28.922 13.766 29.5224 13.394 30.2963C13.1733 30.7553 13.1499 30.8754 13.1499 31.5463C13.1499 32.1957 13.1775 32.3481 13.3703 32.7654C13.6491 33.3687 14.2534 33.9704 14.8686 34.2574C15.2842 34.4512 15.4259 34.4759 16.1186 34.4752C16.8224 34.4745 16.9462 34.4517 17.3669 34.2462C17.9614 33.9558 18.4868 33.4306 18.7796 32.8343C18.9894 32.4069 19.0092 32.2958 19.0092 31.5463C19.0092 30.7967 18.9894 30.6856 18.7796 30.2582C18.4875 29.6632 17.9632 29.1385 17.372 28.8492C16.9807 28.6578 16.7986 28.6193 16.2011 28.6024C15.812 28.5913 15.4057 28.6111 15.2983 28.6464ZM35.0057 28.6872C34.1661 28.9606 33.4232 29.6753 33.11 30.511C32.858 31.1828 32.9072 32.1906 33.2233 32.8343C33.5158 33.4301 34.0395 33.9538 34.6353 34.2463C35.0582 34.4539 35.1779 34.476 35.8842 34.476C36.5765 34.476 36.7198 34.4509 37.1425 34.2556C37.7457 33.9767 38.3475 33.3724 38.6344 32.7572C38.8256 32.3473 38.853 32.1953 38.853 31.5463C38.853 30.8968 38.8254 30.7445 38.6326 30.3271C38.365 29.7481 37.7664 29.1383 37.1733 28.8404C36.8166 28.6613 36.6242 28.6208 36.0405 28.6019C35.5942 28.5874 35.2162 28.6186 35.0057 28.6872ZM15.4254 29.7031C14.1053 30.1946 13.72 31.8883 14.6992 32.8957C15.6508 33.8749 17.2731 33.6039 17.8478 32.3698C18.2896 31.421 17.9047 30.2853 16.9803 29.81C16.5821 29.6053 15.8275 29.5534 15.4254 29.7031ZM35.376 29.6614C33.6815 30.2174 33.4642 32.4618 35.0249 33.2886C35.4945 33.5374 36.3089 33.5249 36.8226 33.2607C38.1571 32.5749 38.2014 30.6253 36.9 29.8626C36.5169 29.6381 35.7541 29.5374 35.376 29.6614ZM24.2557 30.4057C23.8627 30.5517 23.6432 30.7656 23.205 31.4291C22.7385 32.1356 21.5906 33.277 20.8473 33.7735C19.4771 34.6887 18.1782 35.2159 14.4246 36.3803C12.2593 37.052 10.1967 38.5477 8.97277 40.3335C8.59081 40.891 8.54245 41.0072 8.51527 41.4338C8.49183 41.8017 8.52089 41.9806 8.6423 42.2167C8.96714 42.8487 9.51089 43.1875 10.1967 43.1856C10.8089 43.1839 11.1615 42.9711 11.6838 42.2885C12.2384 41.5636 12.954 40.8428 13.5891 40.3694C13.8737 40.1573 14.1265 39.9838 14.151 39.9838C14.1756 39.9838 14.2064 40.702 14.2196 41.5799C14.2464 43.3586 14.2686 43.4376 14.8378 43.7728C15.0834 43.9175 15.2704 43.931 17.3686 43.9553C18.8515 43.9726 19.7716 43.9514 20.0317 43.894C20.5094 43.7887 20.8692 43.4513 20.9939 42.9916C21.0472 42.7952 21.0789 41.6735 21.0791 39.972L21.0796 37.2649L21.8073 36.9109C23.2327 36.2174 24.4914 35.2089 25.4796 33.9681C25.7362 33.6459 25.971 33.3822 26.0014 33.3822C26.0318 33.3822 26.2667 33.6459 26.5233 33.9681C27.5141 35.2121 28.872 36.2956 30.2484 36.9406L30.9233 37.2569L30.9252 39.968C30.9262 41.4591 30.9595 42.8197 30.9992 42.9916C31.0894 43.3824 31.4963 43.7708 31.9407 43.8905C32.159 43.9492 33.0362 43.9703 34.5836 43.9538C36.7342 43.9309 36.9189 43.9179 37.1651 43.7728C37.7342 43.4376 37.7565 43.3586 37.7832 41.5799C37.7964 40.702 37.8273 39.9838 37.8518 39.9838C37.8764 39.9838 38.1292 40.1573 38.4138 40.3694C39.0489 40.8428 39.7645 41.5636 40.3191 42.2885C40.8411 42.9708 41.1941 43.1839 41.8053 43.1856C42.7766 43.1884 43.5014 42.4618 43.5014 41.4856C43.5014 41.1911 43.4402 41.0057 43.2249 40.6481C42.0721 38.7338 39.9181 37.1058 37.5782 36.3804C33.857 35.2269 32.5978 34.7208 31.2696 33.8449C30.4258 33.2885 29.3039 32.1874 28.7694 31.3911C28.2808 30.6631 27.8993 30.3812 27.3253 30.3236C26.9552 30.2865 26.8416 30.3118 26.4519 30.5181L26.0039 30.7554L25.6579 30.5621C25.2257 30.3205 24.6562 30.2571 24.2557 30.4057ZM24.5871 31.4186C24.4895 31.4674 24.1975 31.8058 23.9382 32.1707C22.4585 34.2537 20.2261 35.661 16.6264 36.7799C16.0464 36.9602 15.2402 37.2112 14.8349 37.3377C13.3171 37.8114 12.1034 38.5092 11.0529 39.5116C10.2776 40.2515 9.51706 41.2496 9.51706 41.5273C9.51706 41.8226 9.87659 42.1713 10.1811 42.1713C10.4388 42.1713 10.6111 42.0227 11.0417 41.4291C11.6509 40.5892 12.6085 39.7417 13.7782 39.0073C14.4828 38.5649 14.7628 38.4935 15.0295 38.6883C15.171 38.7917 15.1838 38.9345 15.2202 40.8172L15.2592 42.8353L17.6225 42.856L19.9858 42.8767V39.8392C19.9858 36.9121 19.9915 36.7945 20.1433 36.6015C20.2299 36.4914 20.4321 36.3588 20.5925 36.3067C21.0967 36.1431 22.1889 35.5617 22.7983 35.1324C23.9665 34.3096 25.4557 32.537 25.4549 31.97C25.4543 31.5556 24.952 31.2364 24.5871 31.4186ZM27.0171 31.3736C26.7695 31.4503 26.5483 31.7315 26.548 31.97C26.5472 32.5356 28.0308 34.3032 29.2046 35.1349C29.7582 35.5273 31.4023 36.3878 31.6012 36.3893C31.6518 36.3897 31.7661 36.4827 31.8551 36.5959C32.0126 36.7961 32.0171 36.8846 32.0171 39.8392V42.8767L34.3803 42.856L36.7436 42.8353L36.7827 40.8172C36.8191 38.9345 36.8319 38.7917 36.9734 38.6883C37.2214 38.5072 37.4845 38.559 38.0672 38.9036C39.1787 39.561 40.2263 40.4602 40.8524 41.2942C41.4068 42.0328 41.557 42.1713 41.8033 42.1713C42.0894 42.1713 42.4858 41.7918 42.4858 41.518C42.4858 41.2449 41.6885 40.2101 40.9239 39.4908C39.7101 38.3489 38.5382 37.7273 36.4197 37.1015C31.9397 35.7781 29.651 34.4318 28.087 32.1997C27.8428 31.8513 27.5989 31.5317 27.5449 31.4894C27.4114 31.3849 27.1592 31.3296 27.0171 31.3736Z" fill="#EA6614"/>
</svg>
