<svg width="24" height="24" viewBox="0 0 24 24" fill="none" xmlns="http://www.w3.org/2000/svg">
<path d="M7.79805 2.00024H16.198C19.398 2.00024 21.998 4.60024 21.998 7.80024V16.2002C21.998 17.7385 21.387 19.2138 20.2993 20.3015C19.2116 21.3892 17.7363 22.0002 16.198 22.0002H7.79805C4.59805 22.0002 1.99805 19.4002 1.99805 16.2002V7.80024C1.99805 6.26199 2.60912 4.78674 3.69683 3.69902C4.78454 2.61131 6.25979 2.00024 7.79805 2.00024ZM7.59805 4.00024C6.64327 4.00024 5.72759 4.37953 5.05246 5.05466C4.37733 5.72979 3.99805 6.64546 3.99805 7.60024V16.4002C3.99805 18.3902 5.60805 20.0002 7.59805 20.0002H16.398C17.3528 20.0002 18.2685 19.621 18.9436 18.9458C19.6188 18.2707 19.998 17.355 19.998 16.4002V7.60024C19.998 5.61024 18.388 4.00024 16.398 4.00024H7.59805ZM17.248 5.50024C17.5796 5.50024 17.8975 5.63194 18.1319 5.86636C18.3664 6.10078 18.498 6.41872 18.498 6.75024C18.498 7.08176 18.3664 7.39971 18.1319 7.63413C17.8975 7.86855 17.5796 8.00024 17.248 8.00024C16.9165 8.00024 16.5986 7.86855 16.3642 7.63413C16.1297 7.39971 15.998 7.08176 15.998 6.75024C15.998 6.41872 16.1297 6.10078 16.3642 5.86636C16.5986 5.63194 16.9165 5.50024 17.248 5.50024ZM11.998 7.00024C13.3241 7.00024 14.5959 7.52703 15.5336 8.46471C16.4713 9.40239 16.998 10.6742 16.998 12.0002C16.998 13.3263 16.4713 14.5981 15.5336 15.5358C14.5959 16.4735 13.3241 17.0002 11.998 17.0002C10.672 17.0002 9.40019 16.4735 8.46251 15.5358C7.52483 14.5981 6.99805 13.3263 6.99805 12.0002C6.99805 10.6742 7.52483 9.40239 8.46251 8.46471C9.40019 7.52703 10.672 7.00024 11.998 7.00024ZM11.998 9.00024C11.2024 9.00024 10.4393 9.31631 9.87673 9.87892C9.31412 10.4415 8.99805 11.2046 8.99805 12.0002C8.99805 12.7959 9.31412 13.559 9.87673 14.1216C10.4393 14.6842 11.2024 15.0002 11.998 15.0002C12.7937 15.0002 13.5568 14.6842 14.1194 14.1216C14.682 13.559 14.998 12.7959 14.998 12.0002C14.998 11.2046 14.682 10.4415 14.1194 9.87892C13.5568 9.31631 12.7937 9.00024 11.998 9.00024Z" fill="white"/>
</svg>
