<svg width="53" height="52" viewBox="0 0 53 52" fill="none" xmlns="http://www.w3.org/2000/svg">
<path d="M21.5192 25.5049V14.8849H21.9752C23.1962 14.8849 24.1907 13.8915 24.1907 12.6695C24.1907 11.4475 23.1962 10.4541 21.9752 10.4541H12.6087C11.3878 10.4541 10.3933 11.4475 10.3933 12.6695C10.3933 13.8915 11.3867 14.8849 12.6087 14.8849H13.0648V25.5049C9.70541 27.1223 7.54199 30.5098 7.54199 34.3405C7.57558 38.3131 10.9415 41.5447 15.0441 41.5447H19.5388C23.6414 41.5447 27.0073 38.3131 27.0409 34.3459C27.0409 34.3427 27.0409 34.2582 27.0409 34.2549C27.042 30.5055 24.8775 27.119 21.5192 25.5049ZM11.4767 12.6695C11.4767 12.0455 11.9847 11.5374 12.6087 11.5374H21.9752C22.5992 11.5374 23.1073 12.0455 23.1073 12.6695C23.1073 13.2935 22.5992 13.8016 21.9752 13.8016H20.9775H13.6065H12.6087C11.9847 13.8016 11.4767 13.2935 11.4767 12.6695ZM20.4358 14.8849V25.0358C20.3957 25.0217 20.3546 25.013 20.3145 25C20.2571 24.9816 20.1986 24.9654 20.1401 24.948C19.8855 24.8689 19.6287 24.8018 19.3677 24.7454C19.3167 24.7346 19.2658 24.7238 19.2138 24.714C18.9267 24.6566 18.6364 24.6111 18.3428 24.5797C18.3201 24.5775 18.2973 24.5732 18.2757 24.571C17.9507 24.5385 17.6235 24.5169 17.2909 24.5169C16.9594 24.5169 16.6322 24.5385 16.3072 24.571C16.2812 24.5732 16.2552 24.5775 16.2303 24.5808C15.9411 24.6122 15.6562 24.6555 15.3745 24.7119C15.3182 24.7227 15.2629 24.7346 15.2077 24.7465C14.9542 24.8018 14.705 24.8679 14.4569 24.9437C14.393 24.9632 14.328 24.9805 14.2641 25.0011C14.2251 25.0141 14.1861 25.0228 14.1482 25.0358V14.8849H20.4358ZM26.5003 34.256L25.9587 34.3319C25.9305 37.7118 23.0499 40.4613 19.5399 40.4613H15.0452C11.5352 40.4613 8.65566 37.7119 8.62641 34.2549C8.62641 30.8132 10.6663 27.7008 13.8286 26.3239C15.9021 25.3976 18.4902 25.3814 20.5897 26.2599C20.646 26.2838 20.7056 26.3011 20.7619 26.326C23.9198 27.7008 25.9597 30.8132 25.9597 34.2549L26.5003 34.256Z" fill="#9E24CB"/>
<path d="M21.9301 29.1167C21.903 29.1221 19.2456 29.667 17.4873 28.9812C15.5373 28.224 12.6091 29.3019 12.0414 29.5251C12.0262 29.5305 12.0122 29.537 11.9981 29.5446C11.9157 29.5814 11.8432 29.6388 11.7879 29.7125C10.8877 30.9042 10.3926 32.3829 10.3926 33.9386C10.4153 36.7704 12.8106 39.0747 15.7345 39.0747H18.8469C21.7708 39.0747 24.1672 36.7704 24.1888 33.9342V33.8736C24.1888 32.1868 23.5702 30.5575 22.4457 29.2878C22.3179 29.1416 22.1186 29.0766 21.9301 29.1167ZM23.6482 33.8747L23.1066 33.931C23.0892 36.1702 21.1782 37.9924 18.848 37.9924H15.7356C13.4053 37.9924 11.4943 36.1702 11.477 33.8747C11.477 32.6667 11.8627 31.4686 12.5647 30.4849C13.1952 30.2487 15.6207 29.4189 17.0941 29.9909C18.7732 30.6463 21.0017 30.3722 21.8293 30.2368C22.6548 31.2725 23.1066 32.553 23.1066 33.8747H23.6482Z" fill="#9E24CB"/>
<path d="M40.1271 25.1451V18.1034H40.4391C41.6015 18.1034 42.5473 17.1577 42.5473 15.9952V15.5706C42.5473 14.4082 41.6015 13.4624 40.4391 13.4624H32.2394C31.077 13.4624 30.1312 14.4082 30.1312 15.5706V15.9952C30.1312 17.1577 31.077 18.1034 32.2394 18.1034H32.391V25.1462L27.3221 38.2122C27.0296 38.9651 27.1282 39.8134 27.5843 40.4797C28.0404 41.147 28.7965 41.5446 29.6047 41.5446H43.0489C43.8614 41.5446 44.6197 41.1426 45.0758 40.4699C45.5319 39.7982 45.624 38.9467 45.3239 38.1917L40.1271 25.1451ZM31.2135 15.9952V15.5706C31.2135 15.0062 31.6728 14.5457 32.2383 14.5457H40.438C41.0035 14.5457 41.4629 15.0051 41.4629 15.5706V15.9952C41.4629 16.5607 41.0035 17.0201 40.438 17.0201H39.5844H32.9305H32.2372C31.6728 17.0201 31.2135 16.5607 31.2135 15.9952ZM44.1766 39.8632C43.9188 40.2446 43.506 40.4623 43.0467 40.4623H29.6025C29.1454 40.4623 28.7348 40.2456 28.4759 39.8686C28.218 39.4906 28.165 39.0312 28.3307 38.6044L33.4354 25.4452C33.4592 25.3823 33.4722 25.3162 33.4722 25.2491V18.1045H39.0427V25.2491C39.0427 25.3173 39.0557 25.3856 39.0817 25.4495L44.3142 38.5936C44.4843 39.0204 44.4345 39.4819 44.1766 39.8632Z" fill="#9E24CB"/>
<path d="M39.358 30.9218C39.3537 30.911 39.344 30.9045 39.3396 30.8936C39.3169 30.8395 39.2898 30.7864 39.2475 30.7409C39.241 30.7344 39.2324 30.7311 39.2259 30.7257C39.2053 30.7051 39.1804 30.6922 39.1565 30.6748C39.1121 30.6434 39.0666 30.6174 39.0168 30.6001C39.0027 30.5957 38.993 30.5838 38.9789 30.5806C38.9637 30.5762 38.9496 30.5827 38.9345 30.5806C38.8803 30.5719 38.8283 30.5719 38.7741 30.5795C38.746 30.5827 38.72 30.5827 38.6929 30.5914C38.6181 30.6131 38.5455 30.6477 38.4838 30.7041C38.382 30.7951 37.472 31.574 36.692 30.9142C35.5285 29.9165 34.0779 30.4126 33.4051 30.8644C33.3791 30.8817 33.3423 30.9132 33.3195 30.9337C33.2578 30.9933 33.2145 31.067 33.1841 31.145C33.1841 31.1461 33.183 31.1461 33.183 31.1471L31.0055 37.4196C30.9481 37.5854 30.9741 37.7685 31.076 37.9115C31.1778 38.0545 31.3425 38.139 31.5169 38.139H41.1596C41.3362 38.139 41.5009 38.0534 41.6027 37.9093C41.7045 37.7652 41.7295 37.5811 41.671 37.4153L39.358 30.9218ZM32.2774 37.0557L34.1418 31.6845C34.1515 31.6791 34.1613 31.6736 34.1721 31.6682C34.196 31.6563 34.222 31.6433 34.249 31.6303C34.2826 31.6141 34.3216 31.5978 34.3606 31.5816C34.391 31.5686 34.4191 31.5566 34.4516 31.5447C34.5253 31.5176 34.6044 31.4916 34.6889 31.4711C34.7062 31.4667 34.7257 31.4656 34.743 31.4613C34.8145 31.4461 34.8882 31.4332 34.964 31.4267C34.9976 31.4234 35.0323 31.4245 35.0659 31.4234C35.1309 31.4212 35.197 31.4234 35.2641 31.431C35.302 31.4353 35.3389 31.4407 35.3768 31.4483C35.4461 31.4613 35.5165 31.483 35.5859 31.5101C35.6195 31.522 35.653 31.5328 35.6855 31.548C35.7874 31.5967 35.8881 31.6563 35.9856 31.7397C36.0365 31.782 36.0885 31.8112 36.1395 31.8481C36.2012 31.8925 36.263 31.9434 36.3258 31.9791C36.3496 31.9932 36.3735 31.9997 36.3962 32.0127C36.4872 32.0615 36.5793 32.1081 36.6714 32.1406C36.6898 32.1471 36.7093 32.1492 36.7277 32.1557C36.8241 32.1871 36.9216 32.2142 37.017 32.2305C37.0354 32.2337 37.0538 32.2326 37.0722 32.2348C37.1686 32.2478 37.264 32.2576 37.3593 32.2586C37.3604 32.2586 37.3604 32.2586 37.3615 32.2586C37.3636 32.2586 37.3658 32.2576 37.3669 32.2576C37.5467 32.2576 37.7211 32.2316 37.889 32.1926C37.9085 32.1882 37.928 32.185 37.9475 32.1806C38.1079 32.1395 38.2595 32.0842 38.4025 32.0203C38.4285 32.0095 38.4524 31.9976 38.4773 31.9856C38.5076 31.9716 38.5401 31.9586 38.5683 31.9434L40.3883 37.0557H32.2774Z" fill="#9E24CB"/>
</svg>
