<svg width="52" height="52" viewBox="0 0 52 52" fill="none" xmlns="http://www.w3.org/2000/svg">
<path d="M8.70964 44.9582H35.4246C35.7236 44.9582 35.9663 44.7155 35.9663 44.4165V38.7474L38.9303 41.7114C38.9552 41.7363 38.9866 41.7483 39.0137 41.7667C39.0343 41.7938 39.0451 41.8273 39.0711 41.8522L39.7645 42.5456C40.2162 42.9973 40.8142 43.2454 41.448 43.2454C42.0893 43.2454 42.6895 42.9973 43.1412 42.5456C43.1423 42.5445 43.1434 42.5445 43.1445 42.5434C44.0675 41.6074 44.0664 40.0929 43.138 39.1656L42.4381 38.4755C42.4132 38.4506 42.3807 38.4387 42.3526 38.4181C42.3341 38.3899 42.3211 38.3585 42.2973 38.3347L35.9663 32.0048V7.58317C35.9663 7.28417 35.7236 7.0415 35.4246 7.0415H8.70964C8.41064 7.0415 8.16797 7.28417 8.16797 7.58317V44.4165C8.16797 44.7155 8.41064 44.9582 8.70964 44.9582ZM28.968 29.5088L28.7968 29.6788L27.707 27.1146L30.2712 28.2109L28.968 29.5088ZM29.9202 30.0905L39.8501 40.0203L39.3127 40.562L35.8081 37.0574L29.3796 30.6278L29.9202 30.0905ZM42.3731 41.7818C41.8846 42.2704 41.0298 42.278 40.5304 41.7808L40.0786 41.329L41.6592 39.7397L41.916 39.483L42.3753 39.9358C42.8801 40.4396 42.8791 41.2683 42.3731 41.7818ZM40.6138 39.2523L30.6872 29.3257L31.2213 28.7916L35.0411 32.6114L35.0422 32.6125L41.1479 38.7182L40.6138 39.2523ZM9.2513 8.12484H34.883V30.9214L31.6048 27.6433C31.5615 27.5999 31.5095 27.5707 31.4575 27.5458C31.4488 27.5414 31.4434 27.5317 31.4347 27.5284L26.8956 25.5893C26.8923 25.5882 26.8901 25.5893 26.8869 25.5882C26.7937 25.5113 26.6778 25.4593 26.5478 25.4593H14.122C13.823 25.4593 13.5803 25.7019 13.5803 26.0009C13.5803 26.2999 13.823 26.5426 14.122 26.5426H26.2867L28.11 30.8337L28.1121 30.8391C28.1143 30.8445 28.1197 30.8467 28.1219 30.851C28.149 30.9095 28.1826 30.9637 28.2281 31.0103L34.8841 37.6663V43.8748H9.2513V8.12484Z" fill="#0FB4B2"/>
<path d="M14.5063 15.4839L15.803 14.1871C16.2537 13.7354 17.0424 13.7354 17.4952 14.1871L17.7454 14.4385C18.6078 15.3008 20.1093 15.2997 20.9694 14.4385L21.2208 14.1871C21.6714 13.7354 22.4601 13.7354 22.9129 14.1871L23.2434 14.5186C23.6875 14.9628 24.3408 15.2033 24.9269 15.1849C25.5541 15.1643 26.151 14.8837 26.5649 14.4146C26.7924 14.1568 27.1195 14.0095 27.4619 14.0095C27.8053 14.0095 28.1324 14.1579 28.3599 14.4157L29.5386 15.7547C29.6459 15.8761 29.7943 15.9389 29.9449 15.9389C30.0716 15.9389 30.1994 15.8945 30.3024 15.8035C30.5277 15.6052 30.5494 15.2629 30.3511 15.0386L29.1724 13.6996C28.7413 13.2078 28.1173 12.9261 27.464 12.9261C27.4629 12.9261 27.4629 12.9261 27.4619 12.9261C26.8075 12.9261 26.1846 13.2078 25.7524 13.6986C25.5324 13.9488 25.2269 14.0918 24.8933 14.1026C24.5574 14.1102 24.2454 13.9889 24.0104 13.7538L23.6799 13.4223C22.8198 12.5621 21.3183 12.56 20.4559 13.4223L20.2046 13.6736C19.7518 14.1254 18.9631 14.1254 18.5124 13.6736L18.2622 13.4223C17.4009 12.5621 15.9005 12.56 15.0382 13.4223L13.7414 14.7191C13.5302 14.9303 13.5302 15.2737 13.7414 15.485C13.9527 15.6962 14.2939 15.6951 14.5063 15.4839Z" fill="#0FB4B2"/>
<path d="M14.5063 20.6007L15.803 19.3039C16.2699 18.837 17.0283 18.8381 17.4952 19.3039L17.7454 19.5553C18.6078 20.4176 20.1093 20.4165 20.9694 19.5553L21.2208 19.3039C21.6714 18.8522 22.4601 18.8522 22.9129 19.3039L23.2434 19.6354C23.6875 20.0796 24.3408 20.3223 24.9269 20.3017C25.5541 20.2811 26.151 20.0005 26.5649 19.5314C26.7924 19.2736 27.1195 19.1263 27.4619 19.1263H27.464C27.8064 19.1263 28.1324 19.2747 28.3599 19.5325L29.5386 20.8715C29.6459 20.9929 29.7943 21.0557 29.9449 21.0557C30.0716 21.0557 30.1994 21.0113 30.3024 20.9203C30.5277 20.722 30.5494 20.3797 30.3511 20.1554L29.1735 18.8164C28.7424 18.3246 28.1184 18.0429 27.4651 18.0429H27.4619C26.8075 18.0429 26.1846 18.3235 25.7524 18.8143C25.5324 19.0645 25.2269 19.2075 24.8933 19.2184C24.5574 19.2281 24.2454 19.1046 24.0104 18.8695L23.6799 18.538C22.8198 17.6779 21.3183 17.6757 20.4559 18.538L20.2046 18.7894C19.7518 19.2411 18.9631 19.2411 18.5124 18.7894L18.2622 18.5369C17.3717 17.6497 15.9276 17.6486 15.0382 18.5369L13.7414 19.8337C13.5302 20.0449 13.5302 20.3884 13.7414 20.5996C13.9527 20.8109 14.2939 20.8119 14.5063 20.6007Z" fill="#0FB4B2"/>
</svg>
