<svg width="53" height="52" viewBox="0 0 53 52" fill="none" xmlns="http://www.w3.org/2000/svg">
<path d="M44.8877 28.2567H43.5953C43.3353 24.0718 40.108 20.6842 35.9935 20.1794C38.0302 18.9498 39.3995 16.7214 39.3995 14.1745C39.3995 10.3059 36.2524 7.15771 32.3828 7.15771C28.5131 7.15771 25.3649 10.3059 25.3649 14.1745C25.3649 16.7225 26.7343 18.9498 28.772 20.1794C24.6564 20.6842 21.4303 24.0718 21.1703 28.2567H11.0628V25.1876C11.0628 21.0157 14.3344 17.6021 18.4468 17.3573C18.6808 18.2879 19.5182 18.9812 20.5203 18.9812H21.8517C23.0347 18.9812 23.9956 18.0192 23.9956 16.8373C23.9956 15.6554 23.0336 14.6934 21.8517 14.6934H20.5203C19.5334 14.6934 18.71 15.3661 18.4609 16.274C13.7462 16.5145 9.98053 20.4145 9.98053 25.1887V28.2578H8.05436C7.75536 28.2578 7.5127 28.5005 7.5127 28.7995V34.397C7.5127 34.696 7.75536 34.9387 8.05436 34.9387H11.1234V44.5988C11.1234 44.8978 11.3661 45.1405 11.6651 45.1405H41.2759C41.5749 45.1405 41.8175 44.8978 41.8175 44.5988V34.9376H44.8877C45.1867 34.9376 45.4294 34.695 45.4294 34.396V28.7984C45.4294 28.4994 45.1867 28.2567 44.8877 28.2567ZM20.5192 15.7767H21.8506C22.4356 15.7767 22.9112 16.2523 22.9112 16.8373C22.9112 17.4223 22.4356 17.8979 21.8506 17.8979H20.5192C19.9342 17.8979 19.4586 17.4223 19.4586 16.8373C19.4586 16.2523 19.9342 15.7767 20.5192 15.7767ZM26.4494 14.1734C26.4494 10.9017 29.1111 8.23996 32.3839 8.23996C35.6555 8.23996 38.3173 10.9017 38.3173 14.1734C38.3173 17.445 35.6555 20.1068 32.3839 20.1068C29.1111 20.1079 26.4494 17.4461 26.4494 14.1734ZM29.8348 21.1912H34.9308C38.9445 21.1912 42.2422 24.3145 42.5206 28.2567H22.246C22.5244 24.3134 25.8221 21.1912 29.8348 21.1912ZM40.7342 44.056H12.2068V34.9376H40.7342V44.056ZM44.346 33.8543H41.2759H11.6651H8.59603V29.34H21.6859H43.0818H44.346V33.8543Z" fill="#45A917"/>
</svg>
