<svg width="32" height="32" viewBox="0 0 32 32" fill="none" xmlns="http://www.w3.org/2000/svg">
<path d="M10.3348 3.3335C10.3348 3.06828 10.2294 2.81393 10.0419 2.62639C9.85434 2.43885 9.59999 2.3335 9.33477 2.3335C9.06955 2.3335 8.8152 2.43885 8.62766 2.62639C8.44013 2.81393 8.33477 3.06828 8.33477 3.3335V5.44016C6.41477 5.5935 5.1561 5.9695 4.23077 6.89616C3.3041 7.8215 2.9281 9.0815 2.77344 11.0002H29.2294C29.0748 9.08016 28.6988 7.8215 27.7721 6.89616C26.8468 5.9695 25.5868 5.5935 23.6681 5.43883V3.3335C23.6681 3.06828 23.5627 2.81393 23.3752 2.62639C23.1877 2.43885 22.9333 2.3335 22.6681 2.3335C22.4029 2.3335 22.1485 2.43885 21.961 2.62639C21.7735 2.81393 21.6681 3.06828 21.6681 3.3335V5.35083C20.7814 5.3335 19.7868 5.3335 18.6681 5.3335H13.3348C12.2161 5.3335 11.2214 5.3335 10.3348 5.35083V3.3335Z" fill="#174CD2" fill-opacity="0.7"/>
<path fill-rule="evenodd" clip-rule="evenodd" d="M2.66406 16C2.66406 14.8813 2.66406 13.8867 2.6814 13H29.3134C29.3307 13.8867 29.3307 14.8813 29.3307 16V18.6667C29.3307 23.6947 29.3307 26.2093 27.7681 27.7707C26.2054 29.332 23.6921 29.3333 18.6641 29.3333H13.3307C8.30273 29.3333 5.78806 29.3333 4.22673 27.7707C2.6654 26.208 2.66406 23.6947 2.66406 18.6667V16ZM22.6641 18.6667C23.0177 18.6667 23.3568 18.5262 23.6069 18.2761C23.8569 18.0261 23.9974 17.687 23.9974 17.3333C23.9974 16.9797 23.8569 16.6406 23.6069 16.3905C23.3568 16.1405 23.0177 16 22.6641 16C22.3104 16 21.9713 16.1405 21.7213 16.3905C21.4712 16.6406 21.3307 16.9797 21.3307 17.3333C21.3307 17.687 21.4712 18.0261 21.7213 18.2761C21.9713 18.5262 22.3104 18.6667 22.6641 18.6667ZM22.6641 24C23.0177 24 23.3568 23.8595 23.6069 23.6095C23.8569 23.3594 23.9974 23.0203 23.9974 22.6667C23.9974 22.313 23.8569 21.9739 23.6069 21.7239C23.3568 21.4738 23.0177 21.3333 22.6641 21.3333C22.3104 21.3333 21.9713 21.4738 21.7213 21.7239C21.4712 21.9739 21.3307 22.313 21.3307 22.6667C21.3307 23.0203 21.4712 23.3594 21.7213 23.6095C21.9713 23.8595 22.3104 24 22.6641 24ZM17.3307 17.3333C17.3307 17.687 17.1903 18.0261 16.9402 18.2761C16.6902 18.5262 16.351 18.6667 15.9974 18.6667C15.6438 18.6667 15.3046 18.5262 15.0546 18.2761C14.8045 18.0261 14.6641 17.687 14.6641 17.3333C14.6641 16.9797 14.8045 16.6406 15.0546 16.3905C15.3046 16.1405 15.6438 16 15.9974 16C16.351 16 16.6902 16.1405 16.9402 16.3905C17.1903 16.6406 17.3307 16.9797 17.3307 17.3333ZM17.3307 22.6667C17.3307 23.0203 17.1903 23.3594 16.9402 23.6095C16.6902 23.8595 16.351 24 15.9974 24C15.6438 24 15.3046 23.8595 15.0546 23.6095C14.8045 23.3594 14.6641 23.0203 14.6641 22.6667C14.6641 22.313 14.8045 21.9739 15.0546 21.7239C15.3046 21.4738 15.6438 21.3333 15.9974 21.3333C16.351 21.3333 16.6902 21.4738 16.9402 21.7239C17.1903 21.9739 17.3307 22.313 17.3307 22.6667ZM9.33073 18.6667C9.68435 18.6667 10.0235 18.5262 10.2735 18.2761C10.5236 18.0261 10.6641 17.687 10.6641 17.3333C10.6641 16.9797 10.5236 16.6406 10.2735 16.3905C10.0235 16.1405 9.68435 16 9.33073 16C8.97711 16 8.63797 16.1405 8.38792 16.3905C8.13787 16.6406 7.9974 16.9797 7.9974 17.3333C7.9974 17.687 8.13787 18.0261 8.38792 18.2761C8.63797 18.5262 8.97711 18.6667 9.33073 18.6667ZM9.33073 24C9.68435 24 10.0235 23.8595 10.2735 23.6095C10.5236 23.3594 10.6641 23.0203 10.6641 22.6667C10.6641 22.313 10.5236 21.9739 10.2735 21.7239C10.0235 21.4738 9.68435 21.3333 9.33073 21.3333C8.97711 21.3333 8.63797 21.4738 8.38792 21.7239C8.13787 21.9739 7.9974 22.313 7.9974 22.6667C7.9974 23.0203 8.13787 23.3594 8.38792 23.6095C8.63797 23.8595 8.97711 24 9.33073 24Z" fill="#174CD2" fill-opacity="0.7"/>
</svg>
