<svg width="32" height="32" viewBox="0 0 32 32" fill="none" xmlns="http://www.w3.org/2000/svg">
<path d="M19.0307 22.9998C19.2752 22.7776 19.4085 22.4998 19.4307 22.1665C19.453 21.8332 19.3418 21.5443 19.0974 21.2998L15.3974 17.3998L15.4307 17.2998H15.7641C16.9641 17.2998 17.9587 16.9332 18.7481 16.1998C19.5374 15.4665 20.0205 14.6109 20.1974 13.6332H20.7641C20.9863 13.6332 21.1698 13.5554 21.3147 13.3998C21.4596 13.2443 21.5316 13.0554 21.5307 12.8332C21.5298 12.6109 21.4578 12.4274 21.3147 12.2825C21.1716 12.1376 20.9881 12.0656 20.7641 12.0665H20.1641C20.0974 11.7332 19.981 11.4167 19.8147 11.1172C19.6485 10.8176 19.4427 10.5229 19.1974 10.2332H20.7641C20.9863 10.2332 21.1698 10.1554 21.3147 9.99984C21.4596 9.84428 21.5316 9.65539 21.5307 9.43317C21.5298 9.21095 21.4578 9.02784 21.3147 8.88384C21.1716 8.73984 20.9881 8.66739 20.7641 8.6665H11.4307C11.1641 8.6665 10.9365 8.76117 10.7481 8.9505C10.5596 9.13984 10.465 9.36739 10.4641 9.63317C10.4632 9.89895 10.5578 10.1212 10.7481 10.2998C10.9383 10.4785 11.1658 10.5674 11.4307 10.5665H15.6641C16.2418 10.5665 16.7143 10.7109 17.0814 10.9998C17.4485 11.2887 17.6983 11.6443 17.8307 12.0665H11.2307C11.0085 12.0665 10.825 12.1443 10.6801 12.2998C10.5352 12.4554 10.4632 12.6443 10.4641 12.8665C10.465 13.0887 10.5374 13.2723 10.6814 13.4172C10.8254 13.5621 11.0085 13.6341 11.2307 13.6332H17.8641C17.7307 14.0776 17.4752 14.4612 17.0974 14.7838C16.7196 15.1065 16.2085 15.2674 15.5641 15.2665H13.2974C13.0085 15.2665 12.7587 15.3332 12.5481 15.4665C12.3374 15.5998 12.1761 15.7887 12.0641 16.0332C11.9521 16.2776 11.9187 16.5278 11.9641 16.7838C12.0094 17.0398 12.1316 17.2785 12.3307 17.4998L17.3307 22.9665C17.553 23.2109 17.8307 23.3332 18.1641 23.3332C18.4974 23.3332 18.7863 23.2221 19.0307 22.9998ZM15.9974 29.3332C14.153 29.3332 12.4196 28.9829 10.7974 28.2825C9.17518 27.5821 7.76406 26.6323 6.56406 25.4332C5.36406 24.2341 4.41429 22.8229 3.71473 21.1998C3.01518 19.5767 2.66495 17.8434 2.66406 15.9998C2.66318 14.1563 3.0134 12.4229 3.71473 10.7998C4.41606 9.17673 5.36584 7.76562 6.56406 6.5665C7.76229 5.36739 9.1734 4.41762 10.7974 3.71717C12.4214 3.01673 14.1547 2.6665 15.9974 2.6665C17.8401 2.6665 19.5734 3.01673 21.1974 3.71717C22.8214 4.41762 24.2325 5.36739 25.4307 6.5665C26.629 7.76562 27.5792 9.17673 28.2814 10.7998C28.9836 12.4229 29.3334 14.1563 29.3307 15.9998C29.3281 17.8434 28.9778 19.5767 28.2801 21.1998C27.5823 22.8229 26.6325 24.2341 25.4307 25.4332C24.229 26.6323 22.8178 27.5825 21.1974 28.2838C19.577 28.9852 17.8436 29.3349 15.9974 29.3332Z" fill="#174CD2" fill-opacity="0.7"/>
</svg>
