<svg width="32" height="32" viewBox="0 0 32 32" fill="none" xmlns="http://www.w3.org/2000/svg">
<path d="M14.9983 2.6665C13.1769 2.66784 11.6396 2.67984 10.3316 2.75717V8.33317H14.9983V2.6665ZM8.3316 2.96117C6.70094 3.22117 5.53027 3.70784 4.61694 4.6185C3.70494 5.5305 3.2196 6.7025 2.96094 8.33317H8.3316V2.96117Z" fill="#174CD2" fill-opacity="0.7"/>
<path fill-rule="evenodd" clip-rule="evenodd" d="M2.66406 16.0002C2.66406 13.7335 2.66406 11.8748 2.75606 10.3335H29.2374C29.3307 11.8748 29.3307 13.7335 29.3307 16.0002C29.3307 18.2668 29.3307 20.1255 29.2387 21.6668H2.7574C2.66406 20.1255 2.66406 18.2668 2.66406 16.0002ZM16.5454 13.8722C17.9587 14.8215 18.6641 15.2962 18.6641 16.0002C18.6641 16.7042 17.9574 17.1788 16.5454 18.1282C15.1147 19.0895 14.3987 19.5708 13.8654 19.2175C13.3307 18.8642 13.3307 17.9108 13.3307 16.0002C13.3307 14.0895 13.3307 13.1362 13.8641 12.7828C14.3974 12.4295 15.1147 12.9108 16.5454 13.8722Z" fill="#174CD2" fill-opacity="0.7"/>
<path d="M29.0356 8.33317C28.7769 6.7025 28.2916 5.5305 27.3796 4.6185C26.4676 3.7065 25.2956 3.22117 23.6649 2.96117V8.33317H29.0356ZM16.9983 2.6665C18.8196 2.66784 20.3569 2.67984 21.6649 2.75717V8.33317H16.9983V2.6665ZM29.0356 23.6665H23.6649V29.0372C25.2956 28.7785 26.4676 28.2918 27.3783 27.3798C28.2916 26.4678 28.7783 25.2972 29.0356 23.6665ZM21.6649 23.6665V29.2412C20.3569 29.3185 18.8196 29.3305 16.9983 29.3332V23.6665H21.6649ZM14.9983 29.3332V23.6665H10.3316V29.2412C11.6396 29.3185 13.1769 29.3305 14.9983 29.3332ZM8.3316 23.6665V29.0372C6.70094 28.7785 5.53027 28.2918 4.61694 27.3798C3.70494 26.4678 3.2196 25.2972 2.96094 23.6665H8.3316Z" fill="#174CD2" fill-opacity="0.7"/>
</svg>
