<svg width="32" height="32" viewBox="0 0 32 32" fill="none" xmlns="http://www.w3.org/2000/svg">
<mask id="mask0_1334_5158" style="mask-type:luminance" maskUnits="userSpaceOnUse" x="2" y="2" width="28" height="28">
<path d="M29.3346 15.9998C29.3346 23.3638 23.3653 29.3332 16.0013 29.3332C8.6373 29.3332 2.66797 23.3638 2.66797 15.9998C2.66797 8.63584 8.6373 2.6665 16.0013 2.6665C23.3653 2.6665 29.3346 8.63584 29.3346 15.9998Z" fill="white"/>
<path fill-rule="evenodd" clip-rule="evenodd" d="M16 9.6665C16.2652 9.6665 16.5196 9.77186 16.7071 9.9594C16.8946 10.1469 17 10.4013 17 10.6665V15.5865L20.04 18.6265C20.1382 18.7181 20.2171 18.8285 20.2717 18.9511C20.3264 19.0738 20.3558 19.2062 20.3581 19.3405C20.3605 19.4747 20.3358 19.6081 20.2855 19.7326C20.2352 19.8572 20.1603 19.9703 20.0654 20.0652C19.9704 20.1602 19.8573 20.235 19.7328 20.2853C19.6083 20.3356 19.4749 20.3603 19.3406 20.358C19.2064 20.3556 19.0739 20.3262 18.9513 20.2715C18.8286 20.2169 18.7182 20.1381 18.6267 20.0398L15.2933 16.7065C15.1057 16.5191 15.0002 16.265 15 15.9998V10.6665C15 10.4013 15.1054 10.1469 15.2929 9.9594C15.4804 9.77186 15.7348 9.6665 16 9.6665Z" fill="black"/>
</mask>
<g mask="url(#mask0_1334_5158)">
<path d="M0 0H32V32H0V0Z" fill="#174CD2" fill-opacity="0.7"/>
</g>
</svg>
