<svg width="32" height="32" viewBox="0 0 32 32" fill="none" xmlns="http://www.w3.org/2000/svg">
<path fill-rule="evenodd" clip-rule="evenodd" d="M15.9974 29.3332C23.3614 29.3332 29.3307 23.3638 29.3307 15.9998C29.3307 8.63584 23.3614 2.6665 15.9974 2.6665C8.6334 2.6665 2.66406 8.63584 2.66406 15.9998C2.66406 23.3638 8.6334 29.3332 15.9974 29.3332ZM16.9974 7.99984C16.9974 7.73462 16.892 7.48027 16.7045 7.29273C16.517 7.10519 16.2626 6.99984 15.9974 6.99984C15.7322 6.99984 15.4778 7.10519 15.2903 7.29273C15.1028 7.48027 14.9974 7.73462 14.9974 7.99984V8.4225C12.8241 8.81184 10.9974 10.4452 10.9974 12.6665C10.9974 15.2225 13.4147 16.9998 15.9974 16.9998C17.8334 16.9998 18.9974 18.2078 18.9974 19.3332C18.9974 20.4585 17.8334 21.6665 15.9974 21.6665C14.1627 21.6665 12.9974 20.4585 12.9974 19.3332C12.9974 19.068 12.892 18.8136 12.7045 18.6261C12.517 18.4385 12.2626 18.3332 11.9974 18.3332C11.7322 18.3332 11.4778 18.4385 11.2903 18.6261C11.1028 18.8136 10.9974 19.068 10.9974 19.3332C10.9974 21.5545 12.8241 23.1878 14.9974 23.5772V23.9998C14.9974 24.2651 15.1028 24.5194 15.2903 24.7069C15.4778 24.8945 15.7322 24.9998 15.9974 24.9998C16.2626 24.9998 16.517 24.8945 16.7045 24.7069C16.892 24.5194 16.9974 24.2651 16.9974 23.9998V23.5772C19.1707 23.1878 20.9974 21.5545 20.9974 19.3332C20.9974 16.7772 18.5801 14.9998 15.9974 14.9998C14.1627 14.9998 12.9974 13.7918 12.9974 12.6665C12.9974 11.5412 14.1627 10.3332 15.9974 10.3332C17.8334 10.3332 18.9974 11.5412 18.9974 12.6665C18.9974 12.9317 19.1028 13.1861 19.2903 13.3736C19.4778 13.5611 19.7322 13.6665 19.9974 13.6665C20.2626 13.6665 20.517 13.5611 20.7045 13.3736C20.892 13.1861 20.9974 12.9317 20.9974 12.6665C20.9974 10.4452 19.1707 8.81184 16.9974 8.4225V7.99984Z" fill="#174CD2" fill-opacity="0.7"/>
</svg>
