<svg width="32" height="32" viewBox="0 0 32 32" fill="none" xmlns="http://www.w3.org/2000/svg">
<path fill-rule="evenodd" clip-rule="evenodd" d="M16.0012 2.6665C10.4905 2.6665 7.7345 2.6665 6.93183 4.39984C6.86275 4.54913 6.80482 4.70333 6.7585 4.86117C6.21183 6.7105 8.16117 8.8545 12.0572 13.1412L14.6678 15.9998H17.3345L19.9452 13.1425C23.8412 8.8545 25.7892 6.7105 25.2438 4.8625C25.1976 4.70375 25.1397 4.54866 25.0705 4.3985C24.2678 2.6665 21.5118 2.6665 16.0012 2.6665Z" fill="#174CD2"/>
<path opacity="0.5" d="M6.93148 27.6C7.73415 29.3333 10.4902 29.3333 16.0008 29.3333C21.5115 29.3333 24.2675 29.3333 25.0702 27.6C25.1392 27.4507 25.1972 27.2965 25.2435 27.1387C25.7901 25.2893 23.8408 23.1453 19.9448 18.8587L17.3342 16H14.6675L12.0568 18.8573C8.16082 23.1453 6.21282 25.2893 6.75815 27.1373C6.80437 27.2973 6.86215 27.4507 6.93148 27.6Z" fill="#174CD2"/>
</svg>
