<svg width="32" height="32" viewBox="0 0 32 32" fill="none" xmlns="http://www.w3.org/2000/svg">
<path fill-rule="evenodd" clip-rule="evenodd" d="M3 8C3 7.73478 3.10536 7.48043 3.29289 7.29289C3.48043 7.10536 3.73478 7 4 7H26.6667C26.9319 7 27.1862 7.10536 27.3738 7.29289C27.5613 7.48043 27.6667 7.73478 27.6667 8C27.6667 8.26522 27.5613 8.51957 27.3738 8.70711C27.1862 8.89464 26.9319 9 26.6667 9H4C3.73478 9 3.48043 8.89464 3.29289 8.70711C3.10536 8.51957 3 8.26522 3 8ZM25.9547 13.3547L26.0453 13.408C27.1013 14.0173 27.9573 14.5107 28.5867 14.9587C29.2213 15.412 29.7707 15.9133 30.0533 16.5973C30.4252 17.4955 30.4252 18.5045 30.0533 19.4027C29.7707 20.0867 29.2213 20.5893 28.5867 21.0413C27.956 21.4893 27.1013 21.9827 26.0453 22.592L25.9547 22.6453C24.8987 23.2547 24.044 23.748 23.3413 24.0693C22.632 24.3933 21.9213 24.6187 21.188 24.5227C20.7105 24.4598 20.2501 24.3034 19.833 24.0625C19.4159 23.8216 19.0504 23.5009 18.7573 23.1187C18.3067 22.532 18.148 21.804 18.0733 21.0293C18 20.2587 18 19.272 18 18.0533V17.9467C18 16.728 18 15.74 18.0733 14.9707C18.148 14.196 18.3067 13.468 18.7573 12.8813C19.0504 12.4991 19.4159 12.1784 19.833 11.9375C20.2501 11.6966 20.7105 11.5402 21.188 11.4773C21.9213 11.3813 22.632 11.6067 23.34 11.9307C24.044 12.2507 24.9 12.744 25.9547 13.3547ZM22.508 13.7493C21.8973 13.4707 21.612 13.4387 21.448 13.4613C21.2309 13.4898 21.0216 13.5607 20.8319 13.67C20.6423 13.7794 20.476 13.925 20.3427 14.0987C20.2427 14.2293 20.1267 14.4933 20.0627 15.1613C20 15.824 19.9987 16.716 19.9987 18C19.9987 19.284 19.9987 20.176 20.0627 20.84C20.1267 21.5067 20.2427 21.7707 20.3427 21.9013C20.612 22.252 21.0093 22.4813 21.448 22.5387C21.612 22.5613 21.8973 22.5293 22.508 22.2507C23.1133 21.9733 23.8867 21.5293 24.9987 20.8867C26.1107 20.244 26.8827 19.7973 27.4253 19.412C27.972 19.0227 28.1413 18.7907 28.2053 18.6387C28.2891 18.4364 28.3323 18.2196 28.3323 18.0007C28.3323 17.7817 28.2891 17.5649 28.2053 17.3627C28.1413 17.2093 27.972 16.9773 27.4253 16.5893C26.8827 16.2027 26.1107 15.756 24.9987 15.1133C23.8867 14.4707 23.1133 14.0267 22.508 13.7493ZM3 14.6667C3 14.4015 3.10536 14.1471 3.29289 13.9596C3.48043 13.772 3.73478 13.6667 4 13.6667H13.3333C13.5985 13.6667 13.8529 13.772 14.0404 13.9596C14.228 14.1471 14.3333 14.4015 14.3333 14.6667C14.3333 14.9319 14.228 15.1862 14.0404 15.3738C13.8529 15.5613 13.5985 15.6667 13.3333 15.6667H4C3.73478 15.6667 3.48043 15.5613 3.29289 15.3738C3.10536 15.1862 3 14.9319 3 14.6667ZM3 21.3333C3 21.0681 3.10536 20.8138 3.29289 20.6262C3.48043 20.4387 3.73478 20.3333 4 20.3333H13.3333C13.5985 20.3333 13.8529 20.4387 14.0404 20.6262C14.228 20.8138 14.3333 21.0681 14.3333 21.3333C14.3333 21.5985 14.228 21.8529 14.0404 22.0404C13.8529 22.228 13.5985 22.3333 13.3333 22.3333H4C3.73478 22.3333 3.48043 22.228 3.29289 22.0404C3.10536 21.8529 3 21.5985 3 21.3333Z" fill="#1A212F" fill-opacity="0.7"/>
</svg>
