<svg width="27" height="35" viewBox="0 0 27 35" fill="none" xmlns="http://www.w3.org/2000/svg">
<path d="M0 8.87753C0.000254239 5.45216 3.92721 3.64357 6.39486 5.93242L15.3068 14.1989C17.0022 15.772 17.0023 18.5162 15.3068 20.0892L6.39486 28.3557C3.92713 30.6446 -1.44984e-07 28.8352 0 25.4097V8.87753ZM8.60781 12.1256C7.90401 11.4661 6.77699 11.9816 6.77699 12.9631V21.325C6.77699 22.3064 7.90399 22.8225 8.60781 22.1634L13.0705 17.9815C13.5492 17.5327 13.5492 16.7554 13.0705 16.3066L8.60781 12.1256Z" fill="#2563EB"/>
<path d="M20.6448 14.1974C22.3407 15.7705 22.3407 18.5153 20.6448 20.0883L5.33837 34.2857L18.1649 19.816C19.5061 18.3029 19.5061 15.9824 18.1649 14.4693L5.33837 0L20.6448 14.1974Z" fill="#2563EB"/>
<path d="M25.2995 14.1974C26.9954 15.7705 26.9954 18.5153 25.2995 20.0883L9.99303 34.2857L22.8196 19.816C24.1608 18.3029 24.1608 15.9824 22.8195 14.4693L9.99303 0L25.2995 14.1974Z" fill="#2563EB"/>
</svg>
