<svg width="53" height="52" viewBox="0 0 53 52" fill="none" xmlns="http://www.w3.org/2000/svg">
<path d="M9.46777 38.9705C9.46777 42.2725 12.1544 44.9581 15.4564 44.9581H39.8184C40.1174 44.9581 40.3601 44.7155 40.3601 44.4165V42.759C40.3601 42.6463 40.3179 42.5477 40.2594 42.4621C40.2529 42.4524 40.255 42.4394 40.2485 42.4296C39.4848 41.433 39.0807 40.2369 39.0807 38.9705C39.0807 37.7041 39.4848 36.5081 40.2485 35.5104C40.255 35.5017 40.2529 35.4887 40.2594 35.479C40.3179 35.3923 40.3601 35.2937 40.3601 35.181V34.0652H42.7835C43.0825 34.0652 43.3252 33.8225 43.3252 33.5235V31.866C43.3252 31.7534 43.2829 31.6548 43.2244 31.5681C43.2179 31.5584 43.2212 31.5454 43.2136 31.5367C42.4499 30.539 42.0469 29.343 42.0469 28.0765C42.0469 26.8101 42.4509 25.6141 43.2136 24.6164C43.2201 24.6077 43.2179 24.5947 43.2244 24.585C43.2829 24.4983 43.3252 24.3997 43.3252 24.287V22.6295C43.3252 22.3305 43.0825 22.0879 42.7835 22.0879H37.1209V17.0406L41.3969 15.0235V18.7371C40.7869 18.9603 40.3471 19.541 40.3471 20.2278C40.3471 21.1053 41.061 21.8192 41.9385 21.8192C42.8171 21.8192 43.531 21.1053 43.531 20.2278C43.531 19.541 43.0912 18.9603 42.4802 18.7371V14.1698C42.4802 14.0745 42.4488 13.99 42.4065 13.912C42.3957 13.8914 42.3827 13.8751 42.3686 13.8567C42.322 13.7928 42.2657 13.7408 42.1964 13.7029C42.1877 13.6975 42.1834 13.6866 42.1736 13.6823L28.5084 7.09562C28.3589 7.02412 28.1867 7.02412 28.0372 7.09562L14.3709 13.6823C14.1835 13.7722 14.0633 13.964 14.0644 14.172C14.0654 14.381 14.1857 14.5706 14.3753 14.6595L19.4247 17.0406V22.0879H18.4215C16.8182 22.0879 15.3124 22.7097 14.1835 23.8385C13.0547 24.9674 12.4339 26.4721 12.4339 28.0765C12.4339 30.1284 13.4718 31.9408 15.0502 33.0209C13.6018 33.1184 12.2498 33.7001 11.2195 34.7315C10.0896 35.8603 9.46777 37.365 9.46777 38.9705ZM38.0396 38.4289H14.7458C14.4468 38.4289 14.2041 38.6715 14.2041 38.9705C14.2041 39.2695 14.4468 39.5122 14.7458 39.5122H38.0396C38.1144 40.4699 38.3798 41.3853 38.8359 42.2173H15.6363C13.8455 42.2173 12.3884 40.7613 12.3884 38.9705C12.3884 38.1006 12.7264 37.2849 13.3353 36.675C13.9582 36.0607 14.775 35.7227 15.6363 35.7227H38.8369C38.3798 36.5558 38.1154 37.4701 38.0396 38.4289ZM41.0058 27.5349H17.7109C17.4119 27.5349 17.1692 27.7775 17.1692 28.0765C17.1692 28.3755 17.4119 28.6182 17.7109 28.6182H41.0058C41.0805 29.577 41.3459 30.4913 41.802 31.3244H18.6014C16.8106 31.3244 15.3535 29.8673 15.3535 28.0765C15.3535 27.2077 15.6915 26.3909 16.3004 25.781C16.9233 25.1667 17.7401 24.8287 18.6014 24.8287H41.8009C41.3449 25.6618 41.0805 26.5772 41.0058 27.5349ZM41.9396 20.737C41.659 20.737 41.4315 20.5095 41.4315 20.2289C41.4315 19.9483 41.659 19.7208 41.9396 19.7208C42.2202 19.7208 42.4488 19.9483 42.4488 20.2289C42.4488 20.5095 42.2202 20.737 41.9396 20.737ZM15.8659 14.1644L28.2744 8.18437L40.6819 14.1644L37.122 15.8435V14.2749C37.122 14.2045 37.1069 14.1373 37.0819 14.0745C37.0733 14.0517 37.0581 14.0344 37.0462 14.0127C37.0256 13.9759 37.005 13.939 36.9758 13.9087C36.9574 13.8892 36.9346 13.874 36.914 13.8567C36.8837 13.8329 36.8534 13.809 36.8176 13.7917C36.7916 13.7787 36.7634 13.7711 36.7353 13.7625C36.7114 13.7549 36.6909 13.7419 36.6659 13.7386L34.6954 13.4234C30.4346 12.7387 26.1143 12.7376 21.8535 13.4234L19.8819 13.7386C19.8569 13.743 19.8364 13.756 19.8125 13.7625C19.7844 13.7711 19.7562 13.7787 19.7302 13.7917C19.6944 13.809 19.6652 13.8318 19.6338 13.8567C19.6121 13.874 19.5904 13.8881 19.572 13.9087C19.5428 13.9401 19.5222 13.9759 19.5016 14.0127C19.4897 14.0333 19.4745 14.0517 19.4659 14.0745C19.4409 14.1373 19.4258 14.2034 19.4258 14.2749V15.8435L15.8659 14.1644ZM20.508 16.6983V14.7375L22.0247 14.4948C26.1706 13.8285 30.375 13.8285 34.5231 14.4948L36.0376 14.7364V16.6983V22.089H20.508V16.6983ZM13.5173 28.0765C13.5173 26.7614 14.0264 25.5275 14.9494 24.6045C15.8746 23.6804 17.1074 23.1712 18.4215 23.1712H19.9664H36.5793H42.2419V23.7454H18.6014C17.4541 23.7454 16.3664 24.195 15.5377 25.0118C14.7209 25.8297 14.2713 26.9174 14.2713 28.0755C14.2713 30.4631 16.2137 32.4066 18.6024 32.4066H42.2429V32.9808H39.8195H18.4215C15.7164 32.9819 13.5173 30.7816 13.5173 28.0765ZM15.4564 34.0652H18.4215H39.2768V34.6394H15.6363C14.489 34.6394 13.4024 35.089 12.5726 35.9058C11.7558 36.7226 11.3062 37.8103 11.3062 38.9695C11.3062 41.3571 13.2486 43.2995 15.6374 43.2995H39.2779V43.8737H15.4564C12.7514 43.8737 10.5511 41.6735 10.5511 38.9695C10.5511 37.6543 11.0603 36.4204 11.9844 35.4974C12.9084 34.5744 14.1413 34.0652 15.4564 34.0652Z" fill="#1765D2"/>
</svg>
