<svg width="52" height="52" viewBox="0 0 52 52" fill="none" xmlns="http://www.w3.org/2000/svg">
<g clip-path="url(#clip0_1702_9611)">
<path fill-rule="evenodd" clip-rule="evenodd" d="M17.1934 8.17248C16.4094 8.38841 15.6798 8.92715 15.2371 9.61698C14.4238 10.8844 14.6372 12.6962 15.7207 13.7227L15.9363 13.927L15.4741 14.1637C13.8257 15.0082 12.5741 16.8017 12.4454 18.5038C12.4005 19.0978 12.5111 19.3855 12.8682 19.6032C13.083 19.7342 13.2444 19.7405 16.4122 19.7407L19.7312 19.741L19.6947 20.075C19.6497 20.4873 19.8208 20.837 20.1676 21.0418C20.3996 21.1787 20.55 21.1829 25.9253 21.2015L31.4448 21.2205L31.756 21.0608C32.168 20.8494 32.3456 20.5255 32.2964 20.075L32.26 19.741L35.579 19.7407C38.7468 19.7405 38.9082 19.7342 39.123 19.6032C39.4801 19.3855 39.5907 19.0978 39.5458 18.5038C39.4677 17.4707 38.9012 16.2485 38.091 15.3649C37.6553 14.8897 36.6839 14.1825 36.2677 14.0374L36.0455 13.96L36.349 13.6337C36.9664 12.9698 37.2456 12.2688 37.2456 11.3823C37.2456 9.20966 35.2234 7.6329 33.1348 8.17691C31.8762 8.50471 30.9018 9.59722 30.6975 10.9095C30.5546 11.8269 30.8789 12.866 31.5226 13.5542C31.7042 13.7484 31.8401 13.9187 31.8246 13.9326C31.8091 13.9466 31.654 14.0296 31.48 14.117C30.976 14.3701 30.5612 14.6684 30.1238 15.0925L29.7169 15.4871L29.4559 15.3276C29.2538 15.2041 28.3479 14.7346 28.2651 14.7105C28.2566 14.708 28.4161 14.5299 28.6196 14.3146C29.2988 13.5965 29.6518 12.7235 29.6518 11.7626C29.6518 10.69 29.3476 9.94675 28.5972 9.18604C27.1312 7.6997 24.9045 7.68803 23.4275 9.15897C22.6458 9.9374 22.3393 10.6708 22.3393 11.7626C22.3393 12.7235 22.6924 13.5965 23.3715 14.3146C23.5751 14.5299 23.7345 14.708 23.726 14.7105C23.6427 14.7347 22.7379 15.2039 22.5385 15.3262L22.2806 15.4843L21.8705 15.0953C21.4163 14.6643 20.9894 14.3571 20.5112 14.117C20.3372 14.0296 20.1821 13.9466 20.1666 13.9326C20.1511 13.9187 20.287 13.7484 20.4686 13.5542C21.1237 12.8538 21.4419 11.814 21.2853 10.8852C21.0623 9.56333 20.1123 8.50401 18.8564 8.17691C18.364 8.04866 17.6498 8.04676 17.1934 8.17248ZM17.4526 9.28806C16.9733 9.44718 16.7445 9.59694 16.4067 9.97262C15.1899 11.326 16.1815 13.5076 18.0151 13.5112C18.8396 13.5129 19.5749 13.0709 19.9656 12.3387C20.0981 12.0906 20.1241 11.932 20.1243 11.3738C20.1245 10.7646 20.1061 10.6727 19.9159 10.3292C19.5559 9.67921 18.9257 9.28173 18.1673 9.2264C17.9089 9.20748 17.6202 9.23244 17.4526 9.28806ZM25.4152 9.26605C24.699 9.44683 24.054 9.97424 23.6975 10.6707C23.5214 11.0146 23.4995 11.1313 23.4995 11.7254C23.4995 12.3002 23.5254 12.4485 23.6848 12.7885C23.9356 13.3234 24.2892 13.6965 24.8166 13.9825C25.2382 14.2111 25.2893 14.2215 25.9956 14.2215C26.7031 14.2215 26.7524 14.2114 27.1787 13.9803C27.694 13.7009 28.0465 13.326 28.3071 12.7801C28.4671 12.4447 28.4913 12.3046 28.489 11.7254C28.4865 11.1179 28.4664 11.0189 28.267 10.6329C27.8435 9.81301 27.0449 9.28138 26.1566 9.22808C25.8941 9.21233 25.5604 9.22942 25.4152 9.26605ZM33.4839 9.25544C32.8236 9.42805 32.3322 9.82532 32.0368 10.4256C31.8283 10.849 31.8158 10.9165 31.8457 11.4602C31.8956 12.3715 32.2878 12.9606 33.0911 13.3311C34.4205 13.9442 35.9854 13.0169 36.1034 11.5459C36.2004 10.3378 35.2977 9.29945 34.0852 9.22443C33.8705 9.21114 33.5999 9.22506 33.4839 9.25544ZM17.0659 14.7835C16.0282 15.0163 14.9167 15.774 14.3163 16.6581C14.0174 17.0983 13.718 17.8152 13.6249 18.314L13.5684 18.616H16.7842H19.9999L20.1228 18.282C20.292 17.8225 20.7239 17.0958 21.109 16.6231L21.4307 16.2282L21.094 15.9051C20.0805 14.9326 18.439 14.4755 17.0659 14.7835ZM32.9214 14.8172C32.0425 15.0511 31.4241 15.387 30.8625 15.9354L30.5615 16.2295L30.8827 16.6237C31.2673 17.0959 31.6993 17.8227 31.8684 18.282L31.9913 18.616H35.207H38.4228L38.3636 18.2991C38.331 18.1248 38.2195 17.7688 38.1158 17.5081C37.3016 15.4608 34.9944 14.2656 32.9214 14.8172ZM24.7378 15.5917C23.6967 15.8724 22.8814 16.3697 22.1448 17.1735C21.5317 17.8428 21.0177 18.8827 20.8946 19.7032L20.8468 20.0222H25.9956H31.1444L31.0965 19.7032C30.9536 18.7502 30.4343 17.7767 29.6538 16.9988C28.5865 15.9351 27.6254 15.5192 26.1362 15.4768C25.4225 15.4564 25.1597 15.478 24.7378 15.5917ZM25.5938 21.6673C25.14 21.815 24.7455 22.0707 23.9598 22.7266L23.2405 23.3269H19.8017C16.4113 23.3269 16.3628 23.325 16.3628 23.1865C16.3628 22.9884 15.9044 22.5046 15.6374 22.4208C15.0602 22.2398 12.1027 21.7005 11.9046 21.7401C11.5826 21.8045 11.1959 22.0889 11.0703 22.3539C11.009 22.483 10.4003 25.4047 9.71754 28.8465C8.60456 34.4573 8.4844 35.1316 8.55548 35.3691C8.65877 35.7143 8.99887 36.0967 9.2823 36.1865C9.85654 36.3682 12.8128 36.9008 13.0158 36.859C13.376 36.7848 13.7378 36.5053 13.8744 36.1957L14.0008 35.9093L17.8361 39.7321C22.0282 43.9107 21.9515 43.8465 22.8368 43.9116C23.8117 43.9833 24.6265 43.5214 25.0758 42.6424L25.3162 42.172L26.0272 42.8637C26.6029 43.4239 26.8111 43.5805 27.1227 43.6877C28.3163 44.0984 29.5537 43.579 30.0952 42.4399L30.2543 42.105L30.5592 42.3069C30.9924 42.5937 31.3892 42.6862 32.0273 42.6492C32.4581 42.6243 32.6543 42.5745 32.9454 42.4161C33.3595 42.1907 33.7256 41.8193 33.9315 41.4157C34.073 41.1382 34.2458 40.3673 34.1875 40.273C34.1694 40.2438 34.3413 40.1986 34.5696 40.1728C35.3902 40.08 36.1616 39.5323 36.4972 38.8043C36.6155 38.5477 36.6486 38.3337 36.6545 37.788L36.6621 37.0968L37.3229 36.4326L37.9839 35.7685L38.045 36.0226C38.1258 36.358 38.509 36.7317 38.8728 36.8297C39.1292 36.8987 39.3697 36.8683 40.8245 36.5832C42.8393 36.1883 42.8808 36.1756 43.1452 35.8746C43.596 35.3611 43.6461 35.7656 42.2736 28.8465C41.5909 25.4047 40.9821 22.483 40.9209 22.3539C40.7952 22.0889 40.4085 21.8045 40.0866 21.7401C39.8885 21.7005 36.931 22.2398 36.3537 22.4208C36.0148 22.5271 35.6467 22.9745 35.5981 23.339C35.5758 23.5064 35.5656 23.7044 35.5755 23.7791C35.5903 23.8921 35.5109 23.9363 35.1017 24.0429C33.6554 24.4196 32.4077 24.3499 31.08 23.8183C30.3793 23.5377 29.7701 23.1742 28.865 22.4967C27.9058 21.7785 27.5167 21.6239 26.5932 21.5938C26.1299 21.5787 25.789 21.6038 25.5938 21.6673ZM25.8058 22.8098C25.6076 22.88 24.7409 23.5574 23.1677 24.8718C20.8571 26.8023 20.5831 27.0765 20.5807 27.4602C20.5799 27.6017 21.7117 32.8393 21.7532 32.8858C21.7687 32.9032 21.9869 32.816 22.2379 32.6922C23.4658 32.0867 23.8773 31.2363 24.122 28.7991C24.2319 27.7044 24.3313 27.4608 24.7691 27.2129C25.4631 26.8198 26.69 27.2118 27.981 28.2392C28.2619 28.4627 30.1676 30.3446 32.216 32.4211L35.9404 36.1966L36.8273 35.3116L37.7142 34.4267L36.7772 29.7382C36.2618 27.1595 35.8399 25.0453 35.8397 25.04C35.8395 25.0348 35.6152 25.0893 35.3414 25.1612C32.8552 25.814 30.6928 25.2917 28.2146 23.44C27.8186 23.1441 27.3656 22.8693 27.1695 22.8059C26.7451 22.669 26.1992 22.6704 25.8058 22.8098ZM12.0115 23.1798C11.7845 24.2406 9.68308 34.913 9.68308 35.0051C9.68308 35.0944 9.99218 35.1785 11.2263 35.4248C12.0751 35.5941 12.7915 35.7107 12.8184 35.6838C12.8748 35.6274 15.2378 23.8614 15.2378 23.637C15.2378 23.4991 15.121 23.4647 13.6592 23.1725L12.0806 22.857L12.0115 23.1798ZM38.1421 23.2034C36.862 23.465 36.7534 23.4989 36.7534 23.6366C36.7534 23.8601 39.1162 35.6272 39.1724 35.6834C39.1989 35.71 39.9154 35.5944 40.7644 35.4264C42.0144 35.1792 42.3081 35.0994 42.3082 35.0072C42.3082 34.8907 40.012 23.2508 39.945 23.0281C39.8943 22.8596 39.7609 22.8726 38.1421 23.2034ZM16.2567 24.5398C16.2394 24.5882 15.782 26.8584 15.2403 29.5847L14.2553 34.5418L18.2445 38.5392C20.9368 41.2369 22.3253 42.5795 22.5151 42.6685C22.8873 42.8431 23.1573 42.837 23.5368 42.6453C24.0743 42.3737 24.32 41.8229 24.1632 41.2407C24.0962 40.9918 23.8788 40.735 22.8675 39.7105C22.1992 39.0333 21.6311 38.4092 21.6052 38.3237C21.5099 38.009 21.8109 37.6765 22.1945 37.6729C22.4192 37.6708 22.6082 37.8418 24.8664 40.0884C26.2029 41.4181 27.3723 42.545 27.4651 42.5926C27.7221 42.7244 28.2754 42.6994 28.5414 42.5441C28.9869 42.2839 29.2251 41.7388 29.1269 41.2039C29.0849 40.9752 28.7711 40.6316 26.7636 38.6165C25.4145 37.2622 24.4453 36.2355 24.4406 36.1555C24.4228 35.8542 24.464 35.7303 24.6323 35.5789C25.0111 35.2381 24.9559 35.1942 28.1382 38.3667C29.7635 39.9871 31.2012 41.3669 31.3333 41.433C31.5032 41.5183 31.6836 41.5442 31.9514 41.5221C32.7194 41.4583 33.1469 40.8399 32.9948 40.013C32.9514 39.777 32.6047 39.4033 30.1034 36.8953C27.4301 34.215 27.2612 34.0309 27.2612 33.7963C27.2612 33.4723 27.4965 33.241 27.8262 33.241C28.0477 33.241 28.2781 33.4526 30.8803 36.0458C32.4283 37.5885 33.7639 38.8858 33.8484 38.9286C34.1236 39.0684 34.7371 39.0246 35.0017 38.8463C35.3765 38.5938 35.5692 38.201 35.5373 37.7547L35.5107 37.3817L34.0769 35.9266C27.3924 29.1428 26.9662 28.7432 25.9945 28.3483C25.3037 28.0677 25.3313 28.0401 25.2315 29.1101C25.0516 31.0387 24.6612 32.1212 23.8598 32.9134C23.3196 33.4474 22.7984 33.7617 22.0181 34.0239C21.2955 34.2667 21.2036 34.2705 20.9705 34.0672C20.8056 33.9234 20.7285 33.6311 20.1228 30.8553C19.7563 29.1758 19.4565 27.6531 19.4565 27.4716C19.4565 26.711 19.7829 26.2088 20.8556 25.3187C21.3043 24.9464 21.7177 24.5991 21.7743 24.5469C21.8609 24.4671 21.4331 24.4519 19.0827 24.4519C16.9106 24.4519 16.2811 24.4715 16.2567 24.5398Z" fill="#0FAD9D"/>
</g>
<defs>
<clipPath id="clip0_1702_9611">
<rect width="36" height="36" fill="white" transform="translate(8 7.99902)"/>
</clipPath>
</defs>
</svg>
