<svg width="182" height="49" viewBox="0 0 182 49" fill="none" xmlns="http://www.w3.org/2000/svg">
<path d="M12.2031 15.9563C12.2034 12.4842 16.1839 10.651 18.6852 12.9711L27.7186 21.3503C29.4371 22.9447 29.4372 25.7264 27.7186 27.3208L18.6852 35.7C16.1838 38.0202 12.2031 36.1861 12.2031 32.7138V15.9563ZM20.9283 19.2487C20.2149 18.5802 19.0725 19.1027 19.0725 20.0976V28.5735C19.0725 29.5682 20.2149 30.0914 20.9283 29.4234L25.4518 25.1844C25.937 24.7295 25.9371 23.9416 25.4518 23.4866L20.9283 19.2487Z" fill="#174CD2"/>
<path d="M33.1294 21.3487C34.8484 22.9432 34.8484 25.7254 33.1294 27.3199L17.6143 41.7109L30.6157 27.0439C31.9752 25.5102 31.9752 23.158 30.6156 21.6244L17.6143 6.95776L33.1294 21.3487Z" fill="#174CD2"/>
<path d="M37.8475 21.3487C39.5666 22.9432 39.5666 25.7254 37.8475 27.3199L22.3324 41.7109L35.3338 27.0439C36.6933 25.5102 36.6933 23.158 35.3337 21.6244L22.3324 6.95776L37.8475 21.3487Z" fill="#174CD2"/>
<path d="M51.1288 31.8271V29.6459H55.7284C56.74 29.6459 57.5778 29.4167 58.2416 28.9583C58.9055 28.4999 59.3955 27.8519 59.7116 27.0142C60.0435 26.1764 60.2095 25.1886 60.2095 24.0505C60.2095 23.0705 60.1067 22.2249 59.9013 21.5136C59.6958 20.7865 59.3797 20.1938 58.9529 19.7354C58.5419 19.277 58.0124 18.9372 57.3644 18.7159C56.7321 18.4788 55.9892 18.3603 55.1357 18.3603H51.1288V16.179H55.0646C56.8665 16.179 58.3444 16.4872 59.4982 17.1037C60.6521 17.7201 61.5056 18.6053 62.0588 19.7591C62.612 20.8972 62.8886 22.2723 62.8886 23.8845C62.8886 24.991 62.7622 25.9789 62.5093 26.8482C62.2564 27.7017 61.9087 28.4446 61.4661 29.0769C61.0393 29.6933 60.5256 30.207 59.925 30.618C59.3401 31.0289 58.6921 31.3372 57.9808 31.5426C57.2853 31.7323 56.5583 31.8271 55.7996 31.8271H51.1288ZM49.8248 31.8271V16.179H52.4091V31.8271H49.8248ZM71.4579 32.1354C70.4779 32.1354 69.6085 31.9931 68.8499 31.7086C68.0912 31.4083 67.451 30.9894 66.9294 30.452C66.4078 29.8988 66.0126 29.2428 65.7439 28.4841C65.4752 27.7096 65.3409 26.8403 65.3409 25.8761C65.3409 24.9119 65.4752 24.0268 65.7439 23.2207C66.0126 22.3988 66.392 21.6875 66.882 21.0868C67.3878 20.4862 68.0042 20.0199 68.7313 19.688C69.4742 19.3561 70.3119 19.1901 71.2445 19.1901C72.1138 19.1901 72.8883 19.3324 73.568 19.6169C74.2635 19.9014 74.8483 20.3361 75.3225 20.9209C75.7967 21.4899 76.1523 22.2091 76.3894 23.0784C76.6265 23.932 76.7134 24.9357 76.6502 26.0895L67.0005 26.1606V24.5484L75.1328 24.4773L74.2319 25.4731C74.3267 24.5247 74.2477 23.7423 73.9948 23.1258C73.7419 22.5094 73.3783 22.051 72.9041 21.7507C72.43 21.4504 71.8846 21.3002 71.2682 21.3002C70.5727 21.3002 69.9642 21.482 69.4426 21.8455C68.9368 22.1933 68.5416 22.707 68.2571 23.3866C67.9726 24.0663 67.8304 24.8803 67.8304 25.8287C67.8304 27.2513 68.1465 28.3261 68.7787 29.0532C69.411 29.7644 70.3119 30.1201 71.4816 30.1201C71.9716 30.1201 72.3904 30.0648 72.7382 29.9541C73.0859 29.8277 73.3783 29.6696 73.6154 29.4799C73.8525 29.2744 74.0422 29.0374 74.1844 28.7687C74.3425 28.4841 74.4689 28.1917 74.5638 27.8914L76.8162 28.413C76.6739 28.9978 76.4526 29.5194 76.1523 29.9778C75.8678 30.4204 75.5043 30.8076 75.0617 31.1396C74.6191 31.4557 74.0975 31.7007 73.4969 31.8746C72.912 32.0484 72.2324 32.1354 71.4579 32.1354ZM85.049 32.1354C84.069 32.1354 83.1997 31.9931 82.441 31.7086C81.6823 31.4083 81.0422 30.9894 80.5206 30.452C79.999 29.8988 79.6038 29.2428 79.3351 28.4841C79.0664 27.7096 78.932 26.8403 78.932 25.8761C78.932 24.9119 79.0664 24.0268 79.3351 23.2207C79.6038 22.3988 79.9831 21.6875 80.4731 21.0868C80.9789 20.4862 81.5954 20.0199 82.3225 19.688C83.0654 19.3561 83.9031 19.1901 84.8356 19.1901C85.705 19.1901 86.4795 19.3324 87.1592 19.6169C87.8546 19.9014 88.4395 20.3361 88.9136 20.9209C89.3878 21.4899 89.7435 22.2091 89.9806 23.0784C90.2176 23.932 90.3046 24.9357 90.2414 26.0895L80.5917 26.1606V24.5484L88.724 24.4773L87.823 25.4731C87.9178 24.5247 87.8388 23.7423 87.5859 23.1258C87.333 22.5094 86.9695 22.051 86.4953 21.7507C86.0211 21.4504 85.4758 21.3002 84.8594 21.3002C84.1639 21.3002 83.5553 21.482 83.0337 21.8455C82.5279 22.1933 82.1328 22.707 81.8483 23.3866C81.5638 24.0663 81.4215 24.8803 81.4215 25.8287C81.4215 27.2513 81.7376 28.3261 82.3699 29.0532C83.0021 29.7644 83.9031 30.1201 85.0727 30.1201C85.5627 30.1201 85.9816 30.0648 86.3293 29.9541C86.6771 29.8277 86.9695 29.6696 87.2066 29.4799C87.4437 29.2744 87.6333 29.0374 87.7756 28.7687C87.9337 28.4841 88.0601 28.1917 88.1549 27.8914L90.4073 28.413C90.2651 28.9978 90.0438 29.5194 89.7435 29.9778C89.459 30.4204 89.0954 30.8076 88.6528 31.1396C88.2103 31.4557 87.6887 31.7007 87.088 31.8746C86.5032 32.0484 85.8235 32.1354 85.049 32.1354ZM93.1413 35.7155V25.7102V19.4983H95.37L95.2988 22.7465L95.6782 22.7702C95.8521 22.0273 96.1129 21.3951 96.4606 20.8735C96.8083 20.3361 97.2509 19.9251 97.7883 19.6406C98.3415 19.3403 98.9975 19.1901 99.7562 19.1901C100.863 19.1901 101.795 19.4667 102.554 20.0199C103.328 20.5731 103.905 21.3397 104.285 22.3197C104.68 23.2997 104.877 24.422 104.877 25.6864C104.877 26.9193 104.688 28.0258 104.308 29.0057C103.945 29.9699 103.392 30.7365 102.649 31.3055C101.906 31.8588 100.997 32.1354 99.9222 32.1354C99.0844 32.1354 98.389 31.9694 97.8357 31.6375C97.2825 31.2897 96.832 30.8393 96.4843 30.286C96.1366 29.717 95.8679 29.0927 95.6782 28.413H95.2514C95.3463 28.8398 95.4253 29.2824 95.4885 29.7407C95.5517 30.1833 95.6071 30.6259 95.6545 31.0685C95.7019 31.511 95.7256 31.9299 95.7256 32.325V35.7155H93.1413ZM99.1635 29.9778C99.8115 29.9778 100.357 29.7961 100.799 29.4325C101.258 29.0532 101.606 28.5395 101.843 27.8914C102.08 27.2434 102.198 26.5005 102.198 25.6627C102.198 24.7934 102.072 24.0426 101.819 23.4104C101.582 22.7781 101.234 22.2881 100.776 21.9404C100.317 21.5768 99.772 21.3951 99.1397 21.3951C98.5865 21.3951 98.0965 21.5215 97.6698 21.7744C97.243 22.0273 96.8795 22.3592 96.5791 22.7702C96.2946 23.1654 96.0733 23.6079 95.9153 24.0979C95.773 24.5721 95.7019 25.0384 95.7019 25.4968V25.8524C95.7019 26.1685 95.7493 26.5084 95.8442 26.8719C95.939 27.2355 96.0733 27.599 96.2472 27.9625C96.4369 28.3261 96.6661 28.6659 96.9348 28.982C97.2193 29.2824 97.5433 29.5273 97.9069 29.717C98.2862 29.8909 98.7051 29.9778 99.1635 29.9778ZM113.798 31.8271V16.179H116.383V31.8271H113.798ZM115.316 31.8271V29.6459H125.131V31.8271H115.316ZM115.316 24.8803V22.865H123.993V24.8803H115.316ZM115.316 18.3366V16.179H125.108V18.3366H115.316ZM127.825 31.8271V19.4983H130.386V31.8271H127.825ZM129.106 17.4356C128.552 17.4356 128.134 17.325 127.849 17.1037C127.565 16.8666 127.422 16.5189 127.422 16.0605C127.422 15.6179 127.565 15.2781 127.849 15.041C128.134 14.8039 128.552 14.6853 129.106 14.6853C129.675 14.6853 130.101 14.8039 130.386 15.041C130.67 15.2781 130.813 15.6179 130.813 16.0605C130.813 16.5189 130.67 16.8666 130.386 17.1037C130.101 17.325 129.675 17.4356 129.106 17.4356ZM138.656 36.0474C137.328 36.0474 136.237 35.9447 135.384 35.7392C134.546 35.5337 133.929 35.2255 133.534 34.8145C133.139 34.4036 132.942 33.8978 132.942 33.2971C132.942 32.57 133.226 31.9773 133.795 31.5189C134.364 31.0447 135.226 30.7444 136.379 30.618V30.1438C135.526 30.1596 134.878 30.0727 134.435 29.883C134.008 29.6775 133.795 29.3614 133.795 28.9346C133.795 28.492 134.008 28.1206 134.435 27.8203C134.878 27.5042 135.589 27.2275 136.569 26.9905V26.54C135.605 26.5084 134.862 26.2081 134.34 25.639C133.819 25.07 133.558 24.3429 133.558 23.4578C133.558 22.6517 133.771 21.9483 134.198 21.3476C134.641 20.7312 135.281 20.257 136.119 19.9251C136.972 19.5774 138 19.4035 139.201 19.4035H145.152V21.4899L141.335 20.9209V21.3951C142.283 21.5689 142.994 21.8693 143.468 22.296C143.943 22.7228 144.18 23.2997 144.18 24.0268C144.18 24.6749 143.974 25.2518 143.563 25.7576C143.168 26.2634 142.583 26.6585 141.809 26.943C141.034 27.2117 140.086 27.3461 138.964 27.3461C138.758 27.3461 138.537 27.3382 138.3 27.3224C138.063 27.3066 137.715 27.2671 137.257 27.2038C136.877 27.4409 136.569 27.6622 136.332 27.8677C136.111 28.0732 136 28.255 136 28.413C136 28.5711 136.095 28.6975 136.285 28.7924C136.49 28.8872 136.743 28.9504 137.043 28.982C137.344 29.0136 137.628 29.0295 137.897 29.0295H140.932C141.248 29.0295 141.651 29.0611 142.141 29.1243C142.631 29.1717 143.121 29.2982 143.611 29.5036C144.101 29.7091 144.512 30.0331 144.844 30.4757C145.176 30.9025 145.342 31.5031 145.342 32.2776C145.342 33.1628 145.089 33.882 144.583 34.4352C144.077 34.9884 143.326 35.3914 142.33 35.6443C141.335 35.913 140.11 36.0474 138.656 36.0474ZM138.821 33.9373C139.833 33.9373 140.647 33.874 141.264 33.7476C141.88 33.637 142.33 33.4473 142.615 33.1786C142.899 32.9099 143.042 32.57 143.042 32.1591C143.042 31.7797 142.947 31.4873 142.757 31.2818C142.568 31.0605 142.33 30.9104 142.046 30.8314C141.777 30.7365 141.501 30.6812 141.216 30.6654C140.932 30.6496 140.687 30.6417 140.481 30.6417H137.66C136.822 30.7839 136.237 31.0289 135.905 31.3767C135.573 31.7086 135.407 32.08 135.407 32.491C135.407 32.8862 135.55 33.1865 135.834 33.392C136.119 33.6132 136.514 33.7555 137.02 33.8187C137.541 33.8978 138.142 33.9373 138.821 33.9373ZM138.987 25.8287C139.904 25.8287 140.592 25.6311 141.05 25.236C141.524 24.825 141.761 24.2876 141.761 23.6237C141.761 22.9125 141.524 22.3355 141.05 21.893C140.576 21.4346 139.873 21.2054 138.94 21.2054C138.023 21.2054 137.32 21.4267 136.83 21.8693C136.356 22.3118 136.119 22.8729 136.119 23.5526C136.119 24.011 136.229 24.414 136.451 24.7618C136.672 25.0937 136.988 25.3545 137.399 25.5442C137.826 25.7339 138.355 25.8287 138.987 25.8287ZM153.121 32.1354C152.141 32.1354 151.271 31.9931 150.513 31.7086C149.754 31.4083 149.114 30.9894 148.592 30.452C148.071 29.8988 147.675 29.2428 147.407 28.4841C147.138 27.7096 147.004 26.8403 147.004 25.8761C147.004 24.9119 147.138 24.0268 147.407 23.2207C147.675 22.3988 148.055 21.6875 148.545 21.0868C149.05 20.4862 149.667 20.0199 150.394 19.688C151.137 19.3561 151.975 19.1901 152.907 19.1901C153.777 19.1901 154.551 19.3324 155.231 19.6169C155.926 19.9014 156.511 20.3361 156.985 20.9209C157.459 21.4899 157.815 22.2091 158.052 23.0784C158.289 23.932 158.376 24.9357 158.313 26.0895L148.663 26.1606V24.5484L156.796 24.4773L155.895 25.4731C155.989 24.5247 155.91 23.7423 155.657 23.1258C155.405 22.5094 155.041 22.051 154.567 21.7507C154.093 21.4504 153.547 21.3002 152.931 21.3002C152.235 21.3002 151.627 21.482 151.105 21.8455C150.599 22.1933 150.204 22.707 149.92 23.3866C149.635 24.0663 149.493 24.8803 149.493 25.8287C149.493 27.2513 149.809 28.3261 150.441 29.0532C151.074 29.7644 151.975 30.1201 153.144 30.1201C153.634 30.1201 154.053 30.0648 154.401 29.9541C154.749 29.8277 155.041 29.6696 155.278 29.4799C155.515 29.2744 155.705 29.0374 155.847 28.7687C156.005 28.4841 156.132 28.1917 156.226 27.8914L158.479 28.413C158.337 28.9978 158.115 29.5194 157.815 29.9778C157.531 30.4204 157.167 30.8076 156.724 31.1396C156.282 31.4557 155.76 31.7007 155.16 31.8746C154.575 32.0484 153.895 32.1354 153.121 32.1354ZM161.213 31.8271V24.2402V19.4983H163.442L163.299 23.3392H163.702C163.924 22.3909 164.216 21.6164 164.58 21.0157C164.959 20.3993 165.433 19.9409 166.002 19.6406C166.587 19.3403 167.267 19.1901 168.041 19.1901C169.416 19.1901 170.459 19.6801 171.171 20.6601C171.898 21.6401 172.261 23.1337 172.261 25.1411V31.8271H169.653V25.4019C169.653 24.0268 169.448 23.0231 169.037 22.3909C168.626 21.7428 168.01 21.4188 167.188 21.4188C166.476 21.4188 165.868 21.648 165.362 22.1063C164.872 22.5489 164.493 23.1337 164.224 23.8608C163.955 24.5879 163.805 25.3782 163.773 26.2318V31.8271H161.213Z" fill="#1A212F"/>
</svg>
