<svg width="175" height="49" viewBox="0 0 175 49" fill="none" xmlns="http://www.w3.org/2000/svg">
<path d="M12.2031 15.9561C12.2034 12.484 16.1839 10.6508 18.6852 12.9708L27.7186 21.35C29.4371 22.9445 29.4372 25.7261 27.7186 27.3206L18.6852 35.6998C16.1838 38.0199 12.2031 36.1859 12.2031 32.7136V15.9561ZM20.9283 19.2484C20.2149 18.58 19.0725 19.1025 19.0725 20.0973V28.5733C19.0725 29.568 20.2149 30.0912 20.9283 29.4231L25.4518 25.1842C25.937 24.7292 25.9371 23.9413 25.4518 23.4864L20.9283 19.2484Z" fill="white"/>
<path d="M33.1294 21.3485C34.8484 22.943 34.8484 25.7252 33.1294 27.3197L17.6143 41.7106L30.6157 27.0437C31.9752 25.51 31.9752 23.1578 30.6156 21.6241L17.6143 6.95752L33.1294 21.3485Z" fill="white"/>
<path d="M37.8475 21.3485C39.5666 22.943 39.5666 25.7252 37.8475 27.3197L22.3324 41.7106L35.3338 27.0437C36.6933 25.51 36.6933 23.1578 35.3337 21.6241L22.3324 6.95752L37.8475 21.3485Z" fill="white"/>
<path d="M51.9151 31.8271V29.6459H56.5147C57.5263 29.6459 58.364 29.4167 59.0279 28.9583C59.6917 28.4999 60.1817 27.8519 60.4978 27.0142C60.8298 26.1764 60.9957 25.1886 60.9957 24.0505C60.9957 23.0705 60.893 22.2249 60.6875 21.5136C60.482 20.7865 60.1659 20.1938 59.7391 19.7354C59.3282 19.277 58.7987 18.9372 58.1506 18.7159C57.5184 18.4788 56.7755 18.3603 55.922 18.3603H51.9151V16.179H55.8508C57.6527 16.179 59.1306 16.4872 60.2845 17.1037C61.4383 17.7201 62.2918 18.6053 62.8451 19.7591C63.3983 20.8972 63.6749 22.2723 63.6749 23.8845C63.6749 24.991 63.5484 25.9789 63.2955 26.8482C63.0426 27.7017 62.6949 28.4446 62.2523 29.0769C61.8256 29.6933 61.3119 30.207 60.7112 30.618C60.1264 31.0289 59.4783 31.3372 58.7671 31.5426C58.0716 31.7323 57.3445 31.8271 56.5858 31.8271H51.9151ZM50.6111 31.8271V16.179H53.1954V31.8271H50.6111ZM72.2441 32.1354C71.2641 32.1354 70.3948 31.9931 69.6361 31.7086C68.8774 31.4083 68.2373 30.9894 67.7156 30.452C67.194 29.8988 66.7989 29.2428 66.5302 28.4841C66.2615 27.7096 66.1271 26.8403 66.1271 25.8761C66.1271 24.9119 66.2615 24.0268 66.5302 23.2207C66.7989 22.3988 67.1782 21.6875 67.6682 21.0868C68.174 20.4862 68.7905 20.0199 69.5176 19.688C70.2604 19.3561 71.0982 19.1901 72.0307 19.1901C72.9001 19.1901 73.6746 19.3324 74.3542 19.6169C75.0497 19.9014 75.6345 20.3361 76.1087 20.9209C76.5829 21.4899 76.9386 22.2091 77.1756 23.0784C77.4127 23.932 77.4997 24.9357 77.4364 26.0895L67.7868 26.1606V24.5484L75.9191 24.4773L75.0181 25.4731C75.1129 24.5247 75.0339 23.7423 74.781 23.1258C74.5281 22.5094 74.1646 22.051 73.6904 21.7507C73.2162 21.4504 72.6709 21.3002 72.0544 21.3002C71.359 21.3002 70.7504 21.482 70.2288 21.8455C69.723 22.1933 69.3279 22.707 69.0434 23.3866C68.7589 24.0663 68.6166 24.8803 68.6166 25.8287C68.6166 27.2513 68.9327 28.3261 69.565 29.0532C70.1972 29.7644 71.0982 30.1201 72.2678 30.1201C72.7578 30.1201 73.1767 30.0648 73.5244 29.9541C73.8722 29.8277 74.1646 29.6696 74.4017 29.4799C74.6388 29.2744 74.8284 29.0374 74.9707 28.7687C75.1287 28.4841 75.2552 28.1917 75.35 27.8914L77.6024 28.413C77.4602 28.9978 77.2389 29.5194 76.9386 29.9778C76.654 30.4204 76.2905 30.8076 75.8479 31.1396C75.4054 31.4557 74.8838 31.7007 74.2831 31.8746C73.6983 32.0484 73.0186 32.1354 72.2441 32.1354ZM85.8353 32.1354C84.8553 32.1354 83.986 31.9931 83.2273 31.7086C82.4686 31.4083 81.8284 30.9894 81.3068 30.452C80.7852 29.8988 80.39 29.2428 80.1213 28.4841C79.8526 27.7096 79.7183 26.8403 79.7183 25.8761C79.7183 24.9119 79.8526 24.0268 80.1213 23.2207C80.39 22.3988 80.7694 21.6875 81.2594 21.0868C81.7652 20.4862 82.3816 20.0199 83.1087 19.688C83.8516 19.3561 84.6893 19.1901 85.6219 19.1901C86.4912 19.1901 87.2657 19.3324 87.9454 19.6169C88.6409 19.9014 89.2257 20.3361 89.6999 20.9209C90.1741 21.4899 90.5297 22.2091 90.7668 23.0784C91.0039 23.932 91.0908 24.9357 91.0276 26.0895L81.3779 26.1606V24.5484L89.5102 24.4773L88.6093 25.4731C88.7041 24.5247 88.6251 23.7423 88.3722 23.1258C88.1193 22.5094 87.7557 22.051 87.2815 21.7507C86.8074 21.4504 86.262 21.3002 85.6456 21.3002C84.9501 21.3002 84.3416 21.482 83.82 21.8455C83.3142 22.1933 82.919 22.707 82.6345 23.3866C82.35 24.0663 82.2078 24.8803 82.2078 25.8287C82.2078 27.2513 82.5239 28.3261 83.1561 29.0532C83.7884 29.7644 84.6893 30.1201 85.859 30.1201C86.349 30.1201 86.7678 30.0648 87.1156 29.9541C87.4633 29.8277 87.7557 29.6696 87.9928 29.4799C88.2299 29.2744 88.4196 29.0374 88.5618 28.7687C88.7199 28.4841 88.8464 28.1917 88.9412 27.8914L91.1936 28.413C91.0513 28.9978 90.83 29.5194 90.5297 29.9778C90.2452 30.4204 89.8817 30.8076 89.4391 31.1396C88.9965 31.4557 88.4749 31.7007 87.8743 31.8746C87.2894 32.0484 86.6098 32.1354 85.8353 32.1354ZM93.9275 35.7155V25.7102V19.4983H96.1562L96.0851 22.7465L96.4644 22.7702C96.6383 22.0273 96.8991 21.3951 97.2468 20.8735C97.5946 20.3361 98.0372 19.9251 98.5746 19.6406C99.1278 19.3403 99.7837 19.1901 100.542 19.1901C101.649 19.1901 102.581 19.4667 103.34 20.0199C104.115 20.5731 104.692 21.3397 105.071 22.3197C105.466 23.2997 105.664 24.422 105.664 25.6864C105.664 26.9193 105.474 28.0258 105.095 29.0057C104.731 29.9699 104.178 30.7365 103.435 31.3055C102.692 31.8588 101.783 32.1354 100.708 32.1354C99.8707 32.1354 99.1752 31.9694 98.622 31.6375C98.0688 31.2897 97.6183 30.8393 97.2706 30.286C96.9228 29.717 96.6541 29.0927 96.4644 28.413H96.0377C96.1325 28.8398 96.2115 29.2824 96.2748 29.7407C96.338 30.1833 96.3933 30.6259 96.4407 31.0685C96.4881 31.511 96.5119 31.9299 96.5119 32.325V35.7155H93.9275ZM99.9497 29.9778C100.598 29.9778 101.143 29.7961 101.586 29.4325C102.044 29.0532 102.392 28.5395 102.629 27.8914C102.866 27.2434 102.984 26.5005 102.984 25.6627C102.984 24.7934 102.858 24.0426 102.605 23.4104C102.368 22.7781 102.02 22.2881 101.562 21.9404C101.104 21.5768 100.558 21.3951 99.926 21.3951C99.3728 21.3951 98.8828 21.5215 98.456 21.7744C98.0292 22.0273 97.6657 22.3592 97.3654 22.7702C97.0809 23.1654 96.8596 23.6079 96.7015 24.0979C96.5593 24.5721 96.4881 25.0384 96.4881 25.4968V25.8524C96.4881 26.1685 96.5356 26.5084 96.6304 26.8719C96.7252 27.2355 96.8596 27.599 97.0335 27.9625C97.2231 28.3261 97.4523 28.6659 97.721 28.982C98.0055 29.2824 98.3296 29.5273 98.6931 29.717C99.0725 29.8909 99.4913 29.9778 99.9497 29.9778ZM114.584 31.8271V16.179H117.169V31.8271H114.584ZM116.102 31.8271V29.6459H125.917V31.8271H116.102ZM116.102 24.8803V22.865H124.779V24.8803H116.102ZM116.102 18.3366V16.179H125.894V18.3366H116.102ZM128.612 31.8271V19.4983H131.172V31.8271H128.612ZM129.892 17.4356C129.339 17.4356 128.92 17.325 128.635 17.1037C128.351 16.8666 128.209 16.5189 128.209 16.0605C128.209 15.6179 128.351 15.2781 128.635 15.041C128.92 14.8039 129.339 14.6853 129.892 14.6853C130.461 14.6853 130.888 14.8039 131.172 15.041C131.457 15.2781 131.599 15.6179 131.599 16.0605C131.599 16.5189 131.457 16.8666 131.172 17.1037C130.888 17.325 130.461 17.4356 129.892 17.4356ZM139.442 36.0474C138.114 36.0474 137.023 35.9447 136.17 35.7392C135.332 35.5337 134.716 35.2255 134.321 34.8145C133.925 34.4036 133.728 33.8978 133.728 33.2971C133.728 32.57 134.012 31.9773 134.581 31.5189C135.15 31.0447 136.012 30.7444 137.166 30.618V30.1438C136.312 30.1596 135.664 30.0727 135.222 29.883C134.795 29.6775 134.581 29.3614 134.581 28.9346C134.581 28.492 134.795 28.1206 135.222 27.8203C135.664 27.5042 136.375 27.2275 137.355 26.9905V26.54C136.391 26.5084 135.648 26.2081 135.127 25.639C134.605 25.07 134.344 24.3429 134.344 23.4578C134.344 22.6517 134.558 21.9483 134.984 21.3476C135.427 20.7312 136.067 20.257 136.905 19.9251C137.758 19.5774 138.786 19.4035 139.987 19.4035H145.938V21.4899L142.121 20.9209V21.3951C143.069 21.5689 143.781 21.8693 144.255 22.296C144.729 22.7228 144.966 23.2997 144.966 24.0268C144.966 24.6749 144.761 25.2518 144.35 25.7576C143.954 26.2634 143.37 26.6585 142.595 26.943C141.821 27.2117 140.872 27.3461 139.75 27.3461C139.545 27.3461 139.323 27.3382 139.086 27.3224C138.849 27.3066 138.501 27.2671 138.043 27.2038C137.664 27.4409 137.355 27.6622 137.118 27.8677C136.897 28.0732 136.786 28.255 136.786 28.413C136.786 28.5711 136.881 28.6975 137.071 28.7924C137.276 28.8872 137.529 28.9504 137.83 28.982C138.13 29.0136 138.414 29.0295 138.683 29.0295H141.718C142.034 29.0295 142.437 29.0611 142.927 29.1243C143.417 29.1717 143.907 29.2982 144.397 29.5036C144.887 29.7091 145.298 30.0331 145.63 30.4757C145.962 30.9025 146.128 31.5031 146.128 32.2776C146.128 33.1628 145.875 33.882 145.369 34.4352C144.863 34.9884 144.112 35.3914 143.117 35.6443C142.121 35.913 140.896 36.0474 139.442 36.0474ZM139.608 33.9373C140.619 33.9373 141.433 33.874 142.05 33.7476C142.666 33.637 143.117 33.4473 143.401 33.1786C143.686 32.9099 143.828 32.57 143.828 32.1591C143.828 31.7797 143.733 31.4873 143.543 31.2818C143.354 31.0605 143.117 30.9104 142.832 30.8314C142.563 30.7365 142.287 30.6812 142.002 30.6654C141.718 30.6496 141.473 30.6417 141.267 30.6417H138.446C137.608 30.7839 137.023 31.0289 136.691 31.3767C136.36 31.7086 136.194 32.08 136.194 32.491C136.194 32.8862 136.336 33.1865 136.62 33.392C136.905 33.6132 137.3 33.7555 137.806 33.8187C138.327 33.8978 138.928 33.9373 139.608 33.9373ZM139.774 25.8287C140.69 25.8287 141.378 25.6311 141.836 25.236C142.311 24.825 142.548 24.2876 142.548 23.6237C142.548 22.9125 142.311 22.3355 141.836 21.893C141.362 21.4346 140.659 21.2054 139.726 21.2054C138.81 21.2054 138.106 21.4267 137.616 21.8693C137.142 22.3118 136.905 22.8729 136.905 23.5526C136.905 24.011 137.016 24.414 137.237 24.7618C137.458 25.0937 137.774 25.3545 138.185 25.5442C138.612 25.7339 139.141 25.8287 139.774 25.8287ZM153.907 32.1354C152.927 32.1354 152.057 31.9931 151.299 31.7086C150.54 31.4083 149.9 30.9894 149.378 30.452C148.857 29.8988 148.462 29.2428 148.193 28.4841C147.924 27.7096 147.79 26.8403 147.79 25.8761C147.79 24.9119 147.924 24.0268 148.193 23.2207C148.462 22.3988 148.841 21.6875 149.331 21.0868C149.837 20.4862 150.453 20.0199 151.18 19.688C151.923 19.3561 152.761 19.1901 153.693 19.1901C154.563 19.1901 155.337 19.3324 156.017 19.6169C156.712 19.9014 157.297 20.3361 157.771 20.9209C158.246 21.4899 158.601 22.2091 158.838 23.0784C159.075 23.932 159.162 24.9357 159.099 26.0895L149.449 26.1606V24.5484L157.582 24.4773L156.681 25.4731C156.776 24.5247 156.697 23.7423 156.444 23.1258C156.191 22.5094 155.827 22.051 155.353 21.7507C154.879 21.4504 154.334 21.3002 153.717 21.3002C153.022 21.3002 152.413 21.482 151.892 21.8455C151.386 22.1933 150.991 22.707 150.706 23.3866C150.422 24.0663 150.279 24.8803 150.279 25.8287C150.279 27.2513 150.595 28.3261 151.228 29.0532C151.86 29.7644 152.761 30.1201 153.931 30.1201C154.421 30.1201 154.839 30.0648 155.187 29.9541C155.535 29.8277 155.827 29.6696 156.064 29.4799C156.301 29.2744 156.491 29.0374 156.633 28.7687C156.791 28.4841 156.918 28.1917 157.013 27.8914L159.265 28.413C159.123 28.9978 158.902 29.5194 158.601 29.9778C158.317 30.4204 157.953 30.8076 157.511 31.1396C157.068 31.4557 156.546 31.7007 155.946 31.8746C155.361 32.0484 154.681 32.1354 153.907 32.1354ZM161.999 31.8271V24.2402V19.4983H164.228L164.086 23.3392H164.489C164.71 22.3909 165.002 21.6164 165.366 21.0157C165.745 20.3993 166.219 19.9409 166.788 19.6406C167.373 19.3403 168.053 19.1901 168.827 19.1901C170.203 19.1901 171.246 19.6801 171.957 20.6601C172.684 21.6401 173.048 23.1337 173.048 25.1411V31.8271H170.44V25.4019C170.44 24.0268 170.234 23.0231 169.823 22.3909C169.412 21.7428 168.796 21.4188 167.974 21.4188C167.263 21.4188 166.654 21.648 166.148 22.1063C165.658 22.5489 165.279 23.1337 165.01 23.8608C164.741 24.5879 164.591 25.3782 164.56 26.2318V31.8271H161.999Z" fill="white"/>
</svg>
