<svg width="20" height="20" viewBox="0 0 20 20" fill="none" xmlns="http://www.w3.org/2000/svg">
<path fill-rule="evenodd" clip-rule="evenodd" d="M5.91667 1.0415H14.0842C14.9317 1.0415 15.515 1.0415 16.0058 1.2115C16.4645 1.37374 16.8795 1.63945 17.2189 1.98803C17.5582 2.33661 17.8127 2.75868 17.9625 3.2215C18.1258 3.719 18.125 4.31067 18.125 5.18817V16.9782C18.125 18.1998 16.6858 18.9265 15.7383 18.059C15.7079 18.0299 15.6675 18.0137 15.6254 18.0137C15.5833 18.0137 15.5429 18.0299 15.5125 18.059L15.1092 18.4273C14.3358 19.1357 13.1642 19.1357 12.3908 18.4273C12.2509 18.2966 12.0665 18.224 11.875 18.224C11.6835 18.224 11.4991 18.2966 11.3592 18.4273C10.5858 19.1357 9.41417 19.1357 8.64083 18.4273C8.50086 18.2966 8.3165 18.224 8.125 18.224C7.9335 18.224 7.74914 18.2966 7.60917 18.4273C6.83583 19.1357 5.66417 19.1357 4.89083 18.4273L4.48833 18.059C4.45789 18.0297 4.41727 18.0133 4.375 18.0133C4.33273 18.0133 4.29211 18.0297 4.26167 18.059C3.31417 18.9257 1.875 18.1998 1.875 16.9782V5.189C1.875 4.31067 1.875 3.719 2.0375 3.2215C2.18734 2.75868 2.4418 2.33661 2.78113 1.98803C3.12046 1.63945 3.53554 1.37374 3.99417 1.2115C4.48583 1.04067 5.06917 1.0415 5.91667 1.0415ZM6.0375 2.2915C5.02 2.2915 4.66917 2.29984 4.40417 2.39234C4.12741 2.49156 3.87718 2.65313 3.67286 2.86454C3.46853 3.07594 3.31558 3.33152 3.22583 3.6115C3.13333 3.89317 3.12583 4.26484 3.12583 5.30817V16.9782C3.12583 17.0782 3.175 17.1382 3.2375 17.1673C3.26602 17.1809 3.29781 17.1861 3.32917 17.1823C3.36289 17.1766 3.39402 17.1606 3.41833 17.1365C3.67909 16.8965 4.02057 16.7632 4.375 16.7632C4.72943 16.7632 5.07091 16.8965 5.33167 17.1365L5.73417 17.5048C5.87414 17.6355 6.0585 17.7082 6.25 17.7082C6.4415 17.7082 6.62586 17.6355 6.76583 17.5048C7.1362 17.1636 7.62139 16.9741 8.125 16.9741C8.62861 16.9741 9.1138 17.1636 9.48417 17.5048C9.62414 17.6355 9.8085 17.7082 10 17.7082C10.1915 17.7082 10.3759 17.6355 10.5158 17.5048C10.8862 17.1636 11.3714 16.9741 11.875 16.9741C12.3786 16.9741 12.8638 17.1636 13.2342 17.5048C13.3741 17.6355 13.5585 17.7082 13.75 17.7082C13.9415 17.7082 14.1259 17.6355 14.2658 17.5048L14.6683 17.1365C14.9291 16.8965 15.2706 16.7632 15.625 16.7632C15.9794 16.7632 16.3209 16.8965 16.5817 17.1365C16.6175 17.1698 16.6483 17.1798 16.6717 17.1823C16.7028 17.186 16.7342 17.1808 16.7625 17.1673C16.825 17.1382 16.875 17.0773 16.875 16.9782V5.30817C16.875 4.26484 16.8667 3.89317 16.775 3.61067C16.685 3.33067 16.5317 3.07514 16.3271 2.86388C16.1225 2.65261 15.872 2.49126 15.595 2.39234C15.3308 2.30067 14.98 2.29234 13.9625 2.29234L6.0375 2.2915ZM5.20917 6.24984C5.20917 6.08408 5.27501 5.92511 5.39222 5.8079C5.50943 5.69069 5.66841 5.62484 5.83417 5.62484H6.25083C6.41659 5.62484 6.57556 5.69069 6.69277 5.8079C6.80998 5.92511 6.87583 6.08408 6.87583 6.24984C6.87583 6.4156 6.80998 6.57457 6.69277 6.69178C6.57556 6.80899 6.41659 6.87484 6.25083 6.87484H5.83417C5.66841 6.87484 5.50943 6.80899 5.39222 6.69178C5.27501 6.57457 5.20917 6.4156 5.20917 6.24984ZM8.12583 6.24984C8.12583 6.08408 8.19168 5.92511 8.30889 5.8079C8.4261 5.69069 8.58507 5.62484 8.75083 5.62484H14.1675C14.3333 5.62484 14.4922 5.69069 14.6094 5.8079C14.7267 5.92511 14.7925 6.08408 14.7925 6.24984C14.7925 6.4156 14.7267 6.57457 14.6094 6.69178C14.4922 6.80899 14.3333 6.87484 14.1675 6.87484H8.75083C8.58507 6.87484 8.4261 6.80899 8.30889 6.69178C8.19168 6.57457 8.12583 6.4156 8.12583 6.24984ZM5.20917 9.1665C5.20917 9.00074 5.27501 8.84177 5.39222 8.72456C5.50943 8.60735 5.66841 8.5415 5.83417 8.5415H6.25083C6.41659 8.5415 6.57556 8.60735 6.69277 8.72456C6.80998 8.84177 6.87583 9.00074 6.87583 9.1665C6.87583 9.33226 6.80998 9.49123 6.69277 9.60845C6.57556 9.72566 6.41659 9.7915 6.25083 9.7915H5.83417C5.66841 9.7915 5.50943 9.72566 5.39222 9.60845C5.27501 9.49123 5.20917 9.33226 5.20917 9.1665ZM8.12583 9.1665C8.12583 9.00074 8.19168 8.84177 8.30889 8.72456C8.4261 8.60735 8.58507 8.5415 8.75083 8.5415H14.1675C14.3333 8.5415 14.4922 8.60735 14.6094 8.72456C14.7267 8.84177 14.7925 9.00074 14.7925 9.1665C14.7925 9.33226 14.7267 9.49123 14.6094 9.60845C14.4922 9.72566 14.3333 9.7915 14.1675 9.7915H8.75083C8.58507 9.7915 8.4261 9.72566 8.30889 9.60845C8.19168 9.49123 8.12583 9.33226 8.12583 9.1665ZM5.20917 12.0832C5.20917 11.9174 5.27501 11.7584 5.39222 11.6412C5.50943 11.524 5.66841 11.4582 5.83417 11.4582H6.25083C6.41659 11.4582 6.57556 11.524 6.69277 11.6412C6.80998 11.7584 6.87583 11.9174 6.87583 12.0832C6.87583 12.2489 6.80998 12.4079 6.69277 12.5251C6.57556 12.6423 6.41659 12.7082 6.25083 12.7082H5.83417C5.66841 12.7082 5.50943 12.6423 5.39222 12.5251C5.27501 12.4079 5.20917 12.2489 5.20917 12.0832ZM8.12583 12.0832C8.12583 11.9174 8.19168 11.7584 8.30889 11.6412C8.4261 11.524 8.58507 11.4582 8.75083 11.4582H14.1675C14.3333 11.4582 14.4922 11.524 14.6094 11.6412C14.7267 11.7584 14.7925 11.9174 14.7925 12.0832C14.7925 12.2489 14.7267 12.4079 14.6094 12.5251C14.4922 12.6423 14.3333 12.7082 14.1675 12.7082H8.75083C8.58507 12.7082 8.4261 12.6423 8.30889 12.5251C8.19168 12.4079 8.12583 12.2489 8.12583 12.0832Z" fill="#1A212F" fill-opacity="0.7"/>
</svg>
