<svg width="20" height="20" viewBox="0 0 20 20" fill="none" xmlns="http://www.w3.org/2000/svg">
<path d="M12.4525 1.0415C11.3133 1.0415 10.3942 1.0415 9.67168 1.139C8.92168 1.239 8.29001 1.45567 7.78834 1.9565C7.35168 2.394 7.13001 2.9315 7.01418 3.56317C6.90168 4.17734 6.88001 4.92817 6.87501 5.82984C6.87412 5.9956 6.93913 6.15492 7.05571 6.27276C7.1723 6.39059 7.33092 6.45729 7.49668 6.45817C7.66244 6.45905 7.82176 6.39405 7.93959 6.27747C8.05743 6.16088 8.12412 6.00226 8.12501 5.8365C8.13001 4.92567 8.15334 4.27984 8.24334 3.789C8.33084 3.31734 8.47001 3.04317 8.67251 2.84067C8.90334 2.60984 9.22751 2.45984 9.83918 2.37734C10.4683 2.29317 11.3025 2.2915 12.4983 2.2915H13.3317C14.5283 2.2915 15.3625 2.29317 15.9917 2.37734C16.6033 2.45984 16.9267 2.61067 17.1583 2.84067C17.3883 3.0715 17.5383 3.39484 17.6208 4.00734C17.7058 4.63567 17.7067 5.47067 17.7067 6.6665V13.3332C17.7067 14.529 17.7058 15.3632 17.6208 15.9932C17.5383 16.6048 17.3883 16.9282 17.1575 17.159C16.9267 17.3898 16.6033 17.5398 15.9917 17.6223C15.3625 17.7065 14.5283 17.7082 13.3317 17.7082H12.4983C11.3025 17.7082 10.4683 17.7065 9.83834 17.6223C9.22751 17.5398 8.90334 17.389 8.67251 17.159C8.47001 16.9557 8.33084 16.6823 8.24334 16.2107C8.15334 15.7198 8.13001 15.074 8.12501 14.1632C8.12457 14.0811 8.10797 13.9999 8.07616 13.9242C8.04434 13.8486 7.99794 13.7799 7.93959 13.7222C7.88125 13.6645 7.8121 13.6188 7.73611 13.5878C7.66011 13.5568 7.57875 13.5411 7.49668 13.5415C7.4146 13.5419 7.33341 13.5585 7.25775 13.5904C7.18209 13.6222 7.11344 13.6686 7.05571 13.7269C6.99798 13.7853 6.95231 13.8544 6.92131 13.9304C6.8903 14.0064 6.87457 14.0878 6.87501 14.1698C6.88001 15.0715 6.90168 15.8223 7.01418 16.4365C7.13084 17.0682 7.35168 17.6057 7.78918 18.0432C8.29001 18.5448 8.92251 18.7598 9.67251 18.8615C10.3942 18.9582 11.3133 18.9582 12.4525 18.9582H13.3775C14.5175 18.9582 15.4358 18.9582 16.1583 18.8615C16.9083 18.7598 17.54 18.5448 18.0417 18.0432C18.5433 17.5415 18.7583 16.9098 18.86 16.1598C18.9567 15.4373 18.9567 14.5182 18.9567 13.379V6.62067C18.9567 5.4815 18.9567 4.56234 18.86 3.83984C18.7592 3.08984 18.5433 2.45817 18.0417 1.9565C17.54 1.45484 16.9083 1.23984 16.1583 1.139C15.4358 1.0415 14.5167 1.0415 13.3775 1.0415H12.4525Z" fill="#CE2823"/>
<path d="M12.4998 9.37481C12.6656 9.37481 12.8245 9.44066 12.9418 9.55787C13.059 9.67508 13.1248 9.83405 13.1248 9.99981C13.1248 10.1656 13.059 10.3245 12.9418 10.4418C12.8245 10.559 12.6656 10.6248 12.4998 10.6248H3.35565L4.98981 12.0248C5.11579 12.1327 5.19376 12.2862 5.20658 12.4515C5.21939 12.6168 5.166 12.7805 5.05815 12.9065C4.95029 13.0325 4.79681 13.1104 4.63147 13.1232C4.46612 13.1361 4.30246 13.0827 4.17648 12.9748L1.25981 10.4748C1.1912 10.4161 1.13612 10.3433 1.09834 10.2613C1.06057 10.1793 1.04102 10.0901 1.04102 9.99981C1.04102 9.90954 1.06057 9.82033 1.09834 9.73833C1.13612 9.65633 1.1912 9.58349 1.25981 9.52481L4.17648 7.02481C4.23886 6.97141 4.31114 6.93081 4.38921 6.90535C4.46728 6.87988 4.5496 6.87004 4.63147 6.87638C4.71334 6.88273 4.79316 6.90514 4.86637 6.94233C4.93958 6.97952 5.00474 7.03077 5.05815 7.09315C5.11155 7.15553 5.15215 7.22781 5.17761 7.30588C5.20308 7.38394 5.21292 7.46626 5.20658 7.54813C5.20023 7.63 5.17783 7.70982 5.14063 7.78303C5.10344 7.85624 5.05219 7.92141 4.98981 7.97481L3.35648 9.37481H12.4998Z" fill="#CE2823"/>
</svg>
