<svg width="20" height="20" viewBox="0 0 20 20" fill="none" xmlns="http://www.w3.org/2000/svg">
<path d="M7.91797 11.6668C8.58101 11.6668 9.21689 11.9302 9.68574 12.3991C10.1546 12.8679 10.418 13.5038 10.418 14.1668C10.418 14.8299 10.1546 15.4658 9.68574 15.9346C9.21689 16.4034 8.58101 16.6668 7.91797 16.6668C7.25493 16.6668 6.61904 16.4034 6.1502 15.9346C5.68136 15.4658 5.41797 14.8299 5.41797 14.1668C5.41797 13.5038 5.68136 12.8679 6.1502 12.3991C6.61904 11.9302 7.25493 11.6668 7.91797 11.6668ZM12.0846 3.3335C11.7563 3.3335 11.4312 3.39816 11.1279 3.5238C10.8246 3.64943 10.549 3.83358 10.3169 4.06573C10.0847 4.29788 9.90057 4.57347 9.77494 4.87679C9.6493 5.1801 9.58464 5.50519 9.58464 5.8335C9.58464 6.1618 9.6493 6.48689 9.77494 6.7902C9.90057 7.09352 10.0847 7.36912 10.3169 7.60126C10.549 7.83341 10.8246 8.01756 11.1279 8.1432C11.4312 8.26883 11.7563 8.3335 12.0846 8.3335C12.7477 8.3335 13.3836 8.0701 13.8524 7.60126C14.3212 7.13242 14.5846 6.49654 14.5846 5.8335C14.5846 5.17045 14.3212 4.53457 13.8524 4.06573C13.3836 3.59689 12.7477 3.3335 12.0846 3.3335Z" stroke="#1A212F" stroke-opacity="0.7" stroke-width="1.25"/>
<path d="M12.5013 14.1326H18.3346M7.5013 5.79932H1.66797M1.66797 14.1326H3.33464M18.3346 5.79932H16.668" stroke="#1A212F" stroke-opacity="0.7" stroke-width="1.25" stroke-linecap="round"/>
</svg>
